<?xml version="1.0" standalone="no"?>
<!DOCTYPE svg PUBLIC "-//W3C//DTD SVG 20010904//EN"
 "http://www.w3.org/TR/2001/REC-SVG-20010904/DTD/svg10.dtd">
<svg version="1.0" xmlns="http://www.w3.org/2000/svg"
 width="1563.000000pt" height="1563.000000pt" viewBox="0 0 1563.000000 1563.000000"
 preserveAspectRatio="xMidYMid meet">

<g transform="translate(0.000000,1563.000000) scale(0.100000,-0.100000)"
fill="#000000" stroke="none">
<path d="M5380 12232 c0 -5 7 -9 15 -9 8 0 12 4 9 9 -3 4 -9 8 -15 8 -5 0 -9
-4 -9 -8z"/>
<path d="M5286 12201 c-4 -5 -2 -12 3 -15 5 -4 12 -2 15 3 4 5 2 12 -3 15 -5
4 -12 2 -15 -3z"/>
<path d="M5240 12174 c0 -8 6 -11 15 -7 9 3 22 -3 31 -13 14 -18 15 -18 5 2
-12 25 -51 39 -51 18z"/>
<path d="M10380 12168 c0 -9 -6 -19 -12 -21 -10 -4 -10 -6 0 -6 14 -1 28 26
18 36 -3 4 -6 -1 -6 -9z"/>
<path d="M10406 12152 c-3 -5 1 -9 9 -9 8 0 12 4 9 9 -3 4 -7 8 -9 8 -2 0 -6
-4 -9 -8z"/>
<path d="M5128 12065 c-6 -14 -14 -25 -18 -25 -4 0 -10 -9 -13 -20 -3 -13 0
-20 9 -20 8 0 13 3 13 8 -4 21 2 34 14 29 8 -3 12 6 13 24 1 36 -3 36 -18 4z"/>
<path d="M10540 11966 c0 -7 6 -19 14 -25 11 -9 12 -6 8 14 -5 26 -22 35 -22
11z"/>
<path d="M5031 11906 c-8 -10 -9 -16 -1 -21 5 -3 10 -5 11 -3 4 18 7 38 4 38
-1 0 -8 -6 -14 -14z"/>
<path d="M5013 11864 c2 -34 20 -43 42 -21 20 20 20 20 0 9 -16 -9 -22 -7 -32
11 -12 22 -12 22 -10 1z"/>
<path d="M4988 11823 c7 -3 16 -2 19 1 4 3 -2 6 -13 5 -11 0 -14 -3 -6 -6z"/>
<path d="M4965 11760 c-3 -5 -1 -10 4 -10 6 0 11 5 11 10 0 6 -2 10 -4 10 -3
0 -8 -4 -11 -10z"/>
<path d="M10620 11761 c0 -5 5 -13 10 -16 6 -3 10 -2 10 4 0 5 -4 13 -10 16
-5 3 -10 2 -10 -4z"/>
<path d="M10651 11757 c2 -1 12 -9 22 -16 15 -12 17 -12 11 3 -3 9 -13 16 -22
16 -8 0 -13 -1 -11 -3z"/>
<path d="M10705 11679 c-4 -6 -5 -12 -2 -15 2 -3 7 2 10 11 7 17 1 20 -8 4z"/>
<path d="M4874 11631 c4 -5 1 -11 -6 -13 -8 -3 -7 -6 3 -10 10 -4 15 1 16 13
1 10 -3 19 -8 19 -6 0 -8 -4 -5 -9z"/>
<path d="M10770 11571 c0 -10 19 -25 25 -20 1 2 -3 10 -11 17 -8 7 -14 8 -14
3z"/>
<path d="M4831 11544 c0 -11 3 -14 6 -6 3 7 2 16 -1 19 -3 4 -6 -2 -5 -13z"/>
<path d="M10791 11524 c0 -11 3 -14 6 -6 3 7 2 16 -1 19 -3 4 -6 -2 -5 -13z"/>
<path d="M4796 11482 c-2 -4 -1 -14 4 -22 7 -11 9 -9 7 8 -1 24 -3 26 -11 14z"/>
<path d="M4776 11443 c-6 -14 -5 -15 5 -6 7 7 10 15 7 18 -3 3 -9 -2 -12 -12z"/>
<path d="M10846 11443 c-6 -14 -5 -15 5 -6 7 7 10 15 7 18 -3 3 -9 -2 -12 -12z"/>
<path d="M4745 11420 c-3 -5 -1 -10 4 -10 6 0 11 5 11 10 0 6 -2 10 -4 10 -3
0 -8 -4 -11 -10z"/>
<path d="M10844 11409 c-5 -8 -3 -9 6 -4 7 4 16 2 22 -6 8 -12 9 -12 6 0 -6
20 -24 25 -34 10z"/>
<path d="M10878 11373 c7 -3 16 -2 19 1 4 3 -2 6 -13 5 -11 0 -14 -3 -6 -6z"/>
<path d="M4733 11365 c10 -11 -33 -56 -46 -48 -6 3 -7 1 -3 -5 3 -5 0 -13 -6
-15 -10 -4 -10 -6 0 -6 7 -1 11 -5 8 -9 -3 -5 1 -9 9 -9 18 0 20 14 3 19 -7 3
-5 7 6 11 10 4 15 3 11 -3 -3 -6 -1 -10 5 -10 6 0 8 -4 5 -10 -10 -16 11 -12
25 5 11 13 10 14 -5 9 -13 -5 -16 -4 -11 4 4 7 2 12 -3 12 -6 0 -11 5 -11 11
0 6 10 8 23 5 12 -3 17 -3 10 0 -7 3 -10 11 -7 19 3 7 -1 16 -8 21 -7 4 -10 3
-5 -1z"/>
<path d="M10928 11308 c10 -13 10 -17 0 -21 -9 -4 -9 -6 -1 -6 20 -2 24 16 5
30 -15 13 -16 12 -4 -3z"/>
<path d="M10926 11253 c-6 -14 -5 -15 5 -6 7 7 10 15 7 18 -3 3 -9 -2 -12 -12z"/>
<path d="M10950 11250 c0 -4 7 -13 15 -20 8 -7 12 -16 9 -21 -3 -5 2 -6 10 -3
14 5 14 8 1 21 -9 8 -13 18 -11 22 3 4 -1 8 -9 8 -8 0 -15 -4 -15 -7z"/>
<path d="M4645 11211 c-3 -5 -2 -12 3 -15 5 -3 9 1 9 9 0 17 -3 19 -12 6z"/>
<path d="M10932 11204 c10 -10 20 -16 22 -13 3 3 -5 11 -17 18 -21 13 -21 12
-5 -5z"/>
<path d="M11005 11145 c0 -25 20 -23 30 3 3 9 3 13 -1 9 -4 -4 -12 -3 -18 2
-7 6 -11 2 -11 -14z"/>
<path d="M4566 11112 c-3 -6 1 -13 10 -16 23 -9 28 -2 10 13 -8 7 -17 8 -20 3z"/>
<path d="M4560 11072 c9 -19 14 -21 26 -11 8 6 14 14 14 17 0 3 -5 1 -12 -6
-9 -9 -15 -7 -25 6 -13 15 -13 14 -3 -6z"/>
<path d="M4537 11053 c-12 -12 -7 -19 15 -20 13 -1 18 1 13 5 -6 4 -13 11 -16
15 -3 4 -9 4 -12 0z"/>
<path d="M11095 11025 c4 -11 10 -30 12 -42 3 -12 11 -24 19 -27 10 -4 8 7 -7
37 -23 46 -37 64 -24 32z"/>
<path d="M4476 10944 c-20 -20 -21 -19 11 -21 16 -1 21 2 13 7 -7 4 -9 13 -6
19 10 16 0 13 -18 -5z"/>
<path d="M4460 10899 c0 -5 5 -7 10 -4 6 3 10 8 10 11 0 2 -4 4 -10 4 -5 0
-10 -5 -10 -11z"/>
<path d="M5460 10870 c0 -5 5 -10 10 -10 6 0 10 5 10 10 0 6 -4 10 -10 10 -5
0 -10 -4 -10 -10z"/>
<path d="M5668 10873 c7 -3 16 -2 19 1 4 3 -2 6 -13 5 -11 0 -14 -3 -6 -6z"/>
<path d="M5941 10870 c-2 -29 13 -39 33 -24 11 7 16 17 11 21 -4 5 -10 2 -12
-4 -7 -19 -21 -16 -26 5 -3 12 -5 13 -6 2z"/>
<path d="M6070 10870 c0 -5 5 -10 11 -10 5 0 7 5 4 10 -3 6 -8 10 -11 10 -2 0
-4 -4 -4 -10z"/>
<path d="M6150 10865 c7 -8 17 -15 22 -15 5 0 3 7 -6 15 -8 8 -18 15 -22 15
-3 0 -1 -7 6 -15z"/>
<path d="M6525 10868 c4 -11 2 -18 -4 -18 -6 0 -11 -4 -11 -9 0 -5 14 -3 30 5
17 9 30 20 30 26 0 7 -4 7 -13 -1 -10 -8 -17 -7 -26 2 -10 9 -11 8 -6 -5z"/>
<path d="M6906 10867 c-16 -12 -16 -14 3 -31 12 -11 21 -16 21 -11 0 4 -8 14
-17 22 -16 12 -15 13 10 7 22 -5 26 -3 21 10 -7 19 -15 20 -38 3z"/>
<path d="M6970 10870 c-8 -5 -10 -10 -5 -10 6 0 17 5 25 10 8 5 11 10 5 10 -5
0 -17 -5 -25 -10z"/>
<path d="M7090 10876 c0 -2 7 -7 16 -10 8 -3 12 -2 9 4 -6 10 -25 14 -25 6z"/>
<path d="M7175 10870 c4 -6 11 -8 16 -5 14 9 11 15 -7 15 -8 0 -12 -5 -9 -10z"/>
<path d="M7620 10869 c0 -5 5 -7 10 -4 6 3 10 8 10 11 0 2 -4 4 -10 4 -5 0
-10 -5 -10 -11z"/>
<path d="M7702 10851 c1 -17 6 -31 11 -31 6 0 7 3 4 7 -4 3 -2 12 3 18 7 9 6
16 -4 24 -12 10 -15 7 -14 -18z"/>
<path d="M7735 10870 c3 -5 8 -10 11 -10 2 0 4 5 4 10 0 6 -5 10 -11 10 -5 0
-7 -4 -4 -10z"/>
<path d="M7818 10873 c7 -3 16 -2 19 1 4 3 -2 6 -13 5 -11 0 -14 -3 -6 -6z"/>
<path d="M7874 10873 c3 -6 -2 -16 -11 -22 -10 -6 -13 -10 -8 -11 6 0 17 5 25
10 13 8 13 11 1 22 -9 8 -12 9 -7 1z"/>
<path d="M8315 10870 c-3 -6 1 -7 9 -4 18 7 21 14 7 14 -6 0 -13 -4 -16 -10z"/>
<path d="M8413 10873 c9 -2 23 -2 30 0 6 3 -1 5 -18 5 -16 0 -22 -2 -12 -5z"/>
<path d="M8508 10873 c7 -3 16 -2 19 1 4 3 -2 6 -13 5 -11 0 -14 -3 -6 -6z"/>
<path d="M9186 10865 c-9 -26 -7 -32 5 -12 6 10 9 21 6 23 -2 3 -7 -2 -11 -11z"/>
<path d="M9216 10864 c-8 -22 -4 -25 11 -9 7 8 9 16 4 19 -5 3 -12 -1 -15 -10z"/>
<path d="M9300 10870 c14 -4 19 -8 13 -9 -7 -1 -13 -6 -13 -12 0 -7 8 -6 23 4
13 8 32 17 42 20 11 2 -5 5 -35 5 -42 0 -49 -2 -30 -8z"/>
<path d="M9660 10868 c0 -10 25 -38 34 -38 16 0 3 38 -14 43 -11 3 -20 1 -20
-5z"/>
<path d="M9856 10871 c-6 -8 21 -26 35 -23 4 1 14 -7 24 -18 9 -10 23 -16 30
-14 7 3 15 -3 18 -13 3 -10 4 -6 4 10 -1 15 -6 26 -12 24 -13 -6 -76 28 -68
37 3 3 -1 6 -10 6 -9 0 -18 -4 -21 -9z"/>
<path d="M9925 10870 c3 -5 8 -10 11 -10 2 0 4 5 4 10 0 6 -5 10 -11 10 -5 0
-7 -4 -4 -10z"/>
<path d="M11160 10870 c-9 -6 -10 -10 -3 -10 6 0 15 5 18 10 8 12 4 12 -15 0z"/>
<path d="M6010 10859 c-13 -9 -13 -10 1 -6 9 3 22 0 28 -6 9 -9 11 -8 6 6 -8
20 -14 21 -35 6z"/>
<path d="M6430 10855 c-10 -12 -10 -15 3 -15 8 0 17 7 21 15 3 8 2 15 -3 15
-5 0 -14 -7 -21 -15z"/>
<path d="M6996 10855 c-16 -12 -17 -15 -4 -15 8 0 21 7 28 15 16 19 1 19 -24
0z"/>
<path d="M7681 10854 c0 -11 3 -14 6 -6 3 7 2 16 -1 19 -3 4 -6 -2 -5 -13z"/>
<path d="M8244 10855 c8 -8 18 -15 22 -15 3 0 1 7 -6 15 -7 8 -17 15 -22 15
-5 0 -3 -7 6 -15z"/>
<path d="M8344 10860 c-5 -4 -20 -10 -34 -12 -23 -3 -22 -4 7 -9 18 -3 30 -2
27 2 -2 4 4 9 13 11 11 2 14 6 7 10 -6 4 -15 3 -20 -2z"/>
<path d="M8947 10856 c-4 -10 0 -12 14 -9 27 7 34 23 11 23 -11 0 -22 -6 -25
-14z"/>
<path d="M9040 10860 c-9 -6 -10 -10 -3 -10 6 0 15 5 18 10 8 12 4 12 -15 0z"/>
<path d="M9070 10854 c0 -14 3 -14 15 -4 8 7 15 14 15 16 0 2 -7 4 -15 4 -8 0
-15 -7 -15 -16z"/>
<path d="M9383 10863 c-21 -8 -15 -18 11 -18 15 0 22 5 19 13 -5 13 -10 14
-30 5z"/>
<path d="M9748 10859 c12 -7 22 -15 22 -18 0 -3 12 -7 28 -8 l27 -1 -25 13
c-14 7 -36 15 -50 19 -25 6 -25 6 -2 -5z"/>
<path d="M9800 10860 c20 -13 33 -13 25 0 -3 6 -14 10 -23 10 -15 0 -15 -2 -2
-10z"/>
<path d="M11188 10864 c-5 -4 -8 -16 -8 -28 0 -14 3 -17 11 -9 6 6 9 19 7 28
-1 9 -6 13 -10 9z"/>
<path d="M4415 10847 c-15 -12 -16 -15 -4 -22 8 -5 11 -5 7 0 -4 4 0 14 10 21
23 18 11 18 -13 1z"/>
<path d="M5480 10850 c-8 -5 -12 -11 -9 -14 2 -3 11 -1 19 4 8 5 12 11 9 14
-2 3 -11 1 -19 -4z"/>
<path d="M7063 10853 c9 -2 23 -2 30 0 6 3 -1 5 -18 5 -16 0 -22 -2 -12 -5z"/>
<path d="M7763 10853 c-13 -2 -23 -8 -23 -13 0 -5 14 -5 31 0 16 5 38 6 47 4
15 -5 15 -4 2 5 -15 11 -19 11 -57 4z"/>
<path d="M8425 10845 c50 -18 55 -18 31 0 -11 8 -31 15 -45 15 -22 -1 -19 -3
14 -15z"/>
<path d="M8485 10850 c-3 -5 -1 -10 4 -10 6 0 11 5 11 10 0 6 -2 10 -4 10 -3
0 -8 -4 -11 -10z"/>
<path d="M8540 10852 c0 -5 7 -9 15 -9 8 0 15 4 15 9 0 4 -7 8 -15 8 -8 0 -15
-4 -15 -8z"/>
<path d="M9002 10844 c-7 -8 -8 -14 -3 -14 10 0 25 19 20 25 -2 1 -10 -3 -17
-11z"/>
<path d="M9337 10846 c-4 -10 -3 -15 2 -12 8 6 15 -8 31 -64 7 -22 8 -22 9 -4
0 11 -7 38 -17 58 -15 30 -20 35 -25 22z"/>
<path d="M5632 10830 c-13 -21 -12 -21 15 -4 15 10 30 19 32 21 2 2 -4 3 -15
3 -11 0 -25 -9 -32 -20z"/>
<path d="M6130 10840 c0 -5 5 -10 11 -10 5 0 7 5 4 10 -3 6 -8 10 -11 10 -2 0
-4 -4 -4 -10z"/>
<path d="M7145 10840 c-25 -6 -23 -7 18 -7 26 1 47 5 47 9 0 9 -23 9 -65 -2z"/>
<path d="M9235 10841 c-3 -5 -1 -12 5 -16 5 -3 10 1 10 9 0 18 -6 21 -15 7z"/>
<path d="M6460 10836 c0 -2 7 -7 16 -10 8 -3 12 -2 9 4 -6 10 -25 14 -25 6z"/>
<path d="M6940 10829 c0 -5 5 -7 10 -4 6 3 10 8 10 11 0 2 -4 4 -10 4 -5 0
-10 -5 -10 -11z"/>
<path d="M7645 10829 c-11 -17 1 -21 15 -4 8 9 8 15 2 15 -6 0 -14 -5 -17 -11z"/>
<path d="M8608 10833 c7 -3 16 -2 19 1 4 3 -2 6 -13 5 -11 0 -14 -3 -6 -6z"/>
<path d="M5490 10820 c-9 -6 -10 -10 -3 -10 6 0 15 5 18 10 8 12 4 12 -15 0z"/>
<path d="M6094 10819 c-4 -7 -3 -9 4 -5 11 7 56 -49 49 -61 -3 -5 -1 -17 4
-28 7 -17 8 -17 8 8 1 15 5 27 9 27 5 0 7 13 4 30 -2 16 -9 27 -14 24 -5 -4
-7 -15 -5 -26 7 -24 -2 -17 -17 14 -13 26 -31 33 -42 17z"/>
<path d="M8260 10821 c0 -4 11 -8 25 -9 14 -1 25 2 25 6 0 4 -11 8 -25 8 -14
1 -25 -1 -25 -5z"/>
<path d="M9050 10826 c0 -2 7 -7 16 -10 8 -3 12 -2 9 4 -6 10 -25 14 -25 6z"/>
<path d="M9181 10810 c-12 -11 -28 -17 -34 -13 -6 3 -7 1 -3 -5 9 -16 -7 -15
-22 0 -9 9 -12 6 -10 -14 l2 -25 53 35 c29 19 53 36 53 38 0 9 -17 2 -39 -16z"/>
<path d="M9380 10819 c0 -5 5 -7 10 -4 6 3 10 8 10 11 0 2 -4 4 -10 4 -5 0
-10 -5 -10 -11z"/>
<path d="M4396 10807 c3 -10 9 -15 12 -12 3 3 0 11 -7 18 -10 9 -11 8 -5 -6z"/>
<path d="M11150 10809 c0 -5 5 -7 10 -4 6 3 10 8 10 11 0 2 -4 4 -10 4 -5 0
-10 -5 -10 -11z"/>
<path d="M8235 10800 c3 -5 8 -10 11 -10 2 0 4 5 4 10 0 6 -5 10 -11 10 -5 0
-7 -4 -4 -10z"/>
<path d="M5860 10788 c0 -9 5 -20 10 -23 13 -8 13 5 0 25 -8 13 -10 13 -10 -2z"/>
<path d="M5891 10784 c0 -11 3 -14 6 -6 3 7 2 16 -1 19 -3 4 -6 -2 -5 -13z"/>
<path d="M5916 10785 c-9 -26 -7 -32 5 -12 6 10 9 21 6 23 -2 3 -7 -2 -11 -11z"/>
<path d="M6330 10792 c0 -5 14 -12 30 -14 17 -3 30 -1 30 4 0 4 -6 8 -14 8 -8
0 -21 3 -30 6 -9 3 -16 2 -16 -4z"/>
<path d="M6602 10780 c0 -14 2 -19 5 -12 2 6 2 18 0 25 -3 6 -5 1 -5 -13z"/>
<path d="M6738 10791 c-6 -24 -2 -59 5 -52 5 5 15 7 22 5 7 -3 16 0 21 7 4 8
3 10 -4 5 -7 -4 -12 -3 -12 2 0 17 13 22 28 9 13 -9 14 -9 8 1 -4 7 -2 12 4
12 6 0 8 5 4 11 -4 8 -9 7 -15 -2 -5 -8 -9 -9 -9 -3 0 12 -49 17 -52 5z m32
-16 c-14 -17 -30 -20 -30 -6 0 5 8 12 18 14 9 3 19 5 21 6 2 0 -2 -6 -9 -14z"/>
<path d="M6835 10790 c-3 -6 1 -7 9 -4 18 7 21 14 7 14 -6 0 -13 -4 -16 -10z"/>
<path d="M7235 10790 c-13 -5 -14 -9 -5 -9 8 0 24 4 35 9 13 5 14 9 5 9 -8 0
-24 -4 -35 -9z"/>
<path d="M7524 10780 c0 -17 2 -17 28 -4 15 8 28 16 28 17 0 1 -13 3 -28 4
-21 1 -28 -3 -28 -17z"/>
<path d="M7970 10790 c0 -5 5 -10 11 -10 5 0 7 5 4 10 -3 6 -8 10 -11 10 -2 0
-4 -4 -4 -10z"/>
<path d="M8024 10780 c0 -11 4 -20 8 -20 4 0 8 9 8 20 0 11 -4 20 -8 20 -4 0
-8 -9 -8 -20z"/>
<path d="M8050 10790 c0 -5 4 -10 9 -10 6 0 13 5 16 10 3 6 -1 10 -9 10 -9 0
-16 -4 -16 -10z"/>
<path d="M8155 10791 c-6 -11 13 -26 22 -17 4 3 0 6 -8 6 -11 0 -11 2 1 10 9
6 10 10 3 10 -6 0 -14 -4 -18 -9z"/>
<path d="M8197 10793 c-4 -3 -7 -11 -7 -17 0 -6 5 -5 12 2 6 6 9 14 7 17 -3 3
-9 2 -12 -2z"/>
<path d="M8685 10790 c-3 -5 -2 -10 4 -10 5 0 12 -8 14 -17 4 -14 5 -13 6 4 1
24 -14 39 -24 23z"/>
<path d="M9400 10783 c0 -10 4 -25 10 -33 6 -10 9 -5 8 18 -1 33 -18 47 -18
15z"/>
<path d="M9984 10789 c-2 -4 5 -9 15 -12 11 -3 22 0 24 7 5 12 -31 17 -39 5z"/>
<path d="M10034 10776 c-9 -20 -9 -23 2 -19 8 3 14 14 14 24 0 25 -3 24 -16
-5z"/>
<path d="M5685 10780 c-3 -6 1 -7 9 -4 18 7 21 14 7 14 -6 0 -13 -4 -16 -10z"/>
<path d="M6634 10775 c8 -8 18 -15 22 -15 3 0 1 7 -6 15 -7 8 -17 15 -22 15
-5 0 -3 -7 6 -15z"/>
<path d="M8881 10773 c-1 -12 4 -25 9 -28 12 -7 12 2 0 30 -8 19 -9 19 -9 -2z"/>
<path d="M7256 10765 c-3 -8 -1 -15 3 -15 5 0 11 7 15 15 3 8 1 15 -3 15 -5 0
-11 -7 -15 -15z"/>
<path d="M9495 10770 c3 -5 11 -10 16 -10 6 0 7 5 4 10 -3 6 -11 10 -16 10 -6
0 -7 -4 -4 -10z"/>
<path d="M6345 10760 c3 -5 11 -10 16 -10 6 0 7 5 4 10 -3 6 -11 10 -16 10 -6
0 -7 -4 -4 -10z"/>
<path d="M8060 10760 c0 -5 5 -10 11 -10 5 0 7 5 4 10 -3 6 -8 10 -11 10 -2 0
-4 -4 -4 -10z"/>
<path d="M9515 10749 c-22 -14 -25 -19 -12 -19 10 0 15 -5 12 -10 -4 -6 -11
-7 -17 -4 -7 5 -8 2 -4 -5 6 -9 13 -8 27 5 11 9 17 19 14 22 -3 3 0 11 6 19
15 17 11 16 -26 -8z"/>
<path d="M8861 10744 c0 -11 3 -14 6 -6 3 7 2 16 -1 19 -3 4 -6 -2 -5 -13z"/>
<path d="M4349 10728 c-1 -13 -1 -26 0 -30 0 -5 -3 -8 -8 -8 -5 0 -11 3 -14 8
-2 4 -2 1 -1 -5 2 -7 -2 -13 -9 -13 -8 0 -8 -3 2 -9 11 -7 11 -9 0 -14 -8 -3
-9 -6 -3 -6 18 -1 36 26 41 64 2 19 2 35 -1 35 -3 0 -7 -10 -7 -22z"/>
<path d="M5869 10739 c-1 -8 -2 -53 -3 -102 -2 -83 2 -92 19 -38 5 17 4 21 -5
16 -9 -6 -10 -1 -4 16 7 24 7 110 -2 118 -2 2 -4 -2 -5 -10z"/>
<path d="M6330 10738 c0 -8 6 -20 12 -26 10 -10 10 -15 -2 -22 -8 -5 -12 -11
-10 -14 3 -2 14 3 25 11 14 11 16 17 8 20 -7 3 -13 11 -13 18 0 8 -4 17 -10
20 -5 3 -10 0 -10 -7z"/>
<path d="M9384 10739 c-3 -6 -2 -15 3 -20 5 -5 9 -1 10 11 2 22 -2 25 -13 9z"/>
<path d="M5697 10720 c3 -11 7 -20 9 -20 2 0 4 9 4 20 0 11 -4 20 -9 20 -5 0
-7 -9 -4 -20z"/>
<path d="M6633 10733 c-15 -5 -17 -23 -4 -23 5 0 11 7 15 15 3 8 4 15 3 14 -1
0 -8 -3 -14 -6z"/>
<path d="M6593 10710 c-11 -16 -10 -18 2 -14 8 4 15 12 15 20 0 19 -3 18 -17
-6z"/>
<path d="M8876 10714 c-11 -28 -7 -602 4 -609 7 -4 10 102 10 309 0 174 -2
316 -4 316 -2 0 -7 -7 -10 -16z"/>
<path d="M9411 10713 c-1 -29 15 -38 22 -13 3 11 1 18 -3 15 -5 -3 -11 1 -13
7 -3 7 -6 3 -6 -9z"/>
<path d="M5765 10710 c-4 -6 -15 -14 -25 -18 -16 -7 -16 -8 3 -27 19 -19 20
-19 13 -1 -4 12 0 23 11 31 10 8 15 16 11 20 -3 3 -9 1 -13 -5z"/>
<path d="M7305 10707 c11 -9 15 -19 10 -27 -5 -8 -4 -11 3 -6 19 11 10 46 -12
46 -19 0 -19 -1 -1 -13z"/>
<path d="M7450 10697 c0 -14 6 -24 15 -24 8 0 15 4 15 9 0 4 -5 8 -11 8 -5 0
-8 4 -4 9 3 5 1 12 -5 16 -6 3 -10 -4 -10 -18z"/>
<path d="M7504 10709 c-3 -6 -2 -15 3 -20 5 -5 9 -1 9 11 0 23 -2 24 -12 9z"/>
<path d="M8096 10713 c-4 -5 -12 -8 -17 -8 -5 0 -9 -3 -8 -7 3 -28 13 -48 27
-53 14 -5 15 -4 5 6 -7 7 -13 21 -13 30 0 10 6 19 13 22 6 2 9 7 6 11 -3 3 -9
3 -13 -1z"/>
<path d="M8726 10704 c-4 -9 -4 -19 -1 -22 2 -3 7 3 11 12 4 9 4 19 1 22 -2 3
-7 -3 -11 -12z"/>
<path d="M8755 10710 c-4 -6 1 -10 9 -10 8 0 17 -8 19 -17 4 -14 5 -13 6 3 1
23 -24 40 -34 24z"/>
<path d="M10077 10706 c-4 -9 -3 -15 2 -11 6 3 14 -3 20 -12 9 -15 10 -13 11
12 0 21 -3 26 -9 16 -7 -11 -9 -11 -13 0 -3 9 -6 8 -11 -5z"/>
<path d="M10122 10700 c0 -14 2 -19 5 -12 2 6 2 18 0 25 -3 6 -5 1 -5 -13z"/>
<path d="M6674 10691 c0 -11 4 -18 8 -15 4 2 11 -4 17 -13 10 -17 10 -17 11 0
0 10 4 15 10 12 6 -4 7 1 3 11 -5 13 -3 15 7 9 9 -6 11 -4 5 5 -6 10 -11 9
-22 -5 -12 -18 -14 -18 -26 -1 -12 16 -13 16 -13 -3z"/>
<path d="M7345 10700 c3 -5 8 -10 11 -10 2 0 4 5 4 10 0 6 -5 10 -11 10 -5 0
-7 -4 -4 -10z"/>
<path d="M9450 10701 c0 -29 -21 -60 -35 -55 -9 4 -14 13 -11 20 3 8 1 14 -4
14 -17 0 -11 -30 10 -47 22 -19 26 -33 9 -33 -5 0 -7 5 -3 12 4 7 3 8 -5 4 -6
-4 -8 -12 -5 -18 4 -6 -1 -17 -11 -25 -11 -7 -14 -13 -8 -13 6 0 16 7 23 15
21 25 29 17 25 -22 l-5 -38 9 34 c5 19 7 41 3 49 -4 11 -1 13 7 7 10 -6 11 -3
2 13 -14 26 -14 35 0 26 8 -4 9 1 4 16 -4 13 -3 20 2 17 5 -3 9 3 9 14 0 10
-4 19 -8 19 -4 0 -8 -4 -8 -9z"/>
<path d="M9373 10685 c-3 -9 -3 -29 1 -46 5 -25 2 -31 -20 -39 -32 -13 -37
-12 -29 0 3 6 -4 10 -16 10 -12 0 -19 -3 -16 -7 8 -7 -34 -32 -45 -26 -5 2 -8
12 -8 21 0 12 3 13 8 5 4 -7 13 -9 21 -4 9 6 8 10 -8 14 -24 6 -31 0 -31 -29
0 -21 20 -27 36 -11 4 4 14 7 23 7 14 0 14 -2 1 -11 -13 -9 -13 -10 0 -6 8 2
14 10 12 17 -1 7 4 9 15 6 10 -3 29 0 43 7 21 10 24 19 25 60 0 50 -2 56 -12
32z"/>
<path d="M9480 10690 c0 -5 5 -10 11 -10 5 0 7 5 4 10 -3 6 -8 10 -11 10 -2 0
-4 -4 -4 -10z"/>
<path d="M6596 10675 c-11 -8 -15 -15 -9 -15 6 0 16 7 23 15 16 19 11 19 -14
0z"/>
<path d="M8736 10674 c-3 -9 -1 -23 5 -32 9 -14 10 -14 6 6 -3 12 -1 22 4 22
5 0 9 5 9 10 0 16 -17 12 -24 -6z"/>
<path d="M7329 10663 c-13 -17 -13 -17 6 -3 11 8 22 16 24 17 2 2 0 3 -6 3 -6
0 -17 -8 -24 -17z"/>
<path d="M5717 10646 c3 -15 10 -29 15 -32 6 -4 7 2 3 17 -10 35 -23 45 -18
15z"/>
<path d="M6975 10656 c-11 -6 -22 -12 -23 -13 -2 -1 1 -10 8 -20 10 -16 11
-16 6 0 -6 18 -2 19 54 19 21 -1 27 1 15 5 -11 3 -24 9 -30 13 -5 4 -19 3 -30
-4z"/>
<path d="M9780 10660 c-8 -5 -23 -7 -32 -4 -10 3 -18 1 -18 -5 0 -11 108 -12
115 -1 2 4 -6 7 -18 6 -12 -1 -24 2 -27 6 -3 4 -12 3 -20 -2z"/>
<path d="M6620 10650 c-9 -6 -10 -10 -3 -10 6 0 15 5 18 10 8 12 4 12 -15 0z"/>
<path d="M6665 10650 c3 -5 2 -10 -2 -10 -5 0 -10 -11 -11 -25 -2 -32 4 -32
23 3 9 15 14 19 11 10 -3 -10 -1 -18 3 -18 15 0 19 24 7 35 -16 14 -39 18 -31
5z"/>
<path d="M7065 10650 c-3 -5 -1 -10 4 -10 6 0 11 5 11 10 0 6 -2 10 -4 10 -3
0 -8 -4 -11 -10z"/>
<path d="M7441 10644 c0 -11 3 -14 6 -6 3 7 2 16 -1 19 -3 4 -6 -2 -5 -13z"/>
<path d="M8395 10650 c3 -5 14 -10 23 -10 15 0 15 2 2 10 -20 13 -33 13 -25 0z"/>
<path d="M8440 10649 c0 -5 9 -9 20 -9 11 0 20 2 20 4 0 2 -9 6 -20 9 -11 3
-20 1 -20 -4z"/>
<path d="M8768 10648 c7 -7 13 -30 13 -52 2 -33 3 -35 6 -12 6 37 -4 76 -19
76 -9 0 -9 -3 0 -12z"/>
<path d="M5465 10640 c-3 -6 1 -7 9 -4 18 7 21 14 7 14 -6 0 -13 -4 -16 -10z"/>
<path d="M6170 10645 c0 -3 9 -14 20 -25 11 -11 20 -16 20 -11 0 5 -7 17 -16
25 -16 16 -24 20 -24 11z"/>
<path d="M6566 10633 c-6 -14 -5 -15 5 -6 7 7 10 15 7 18 -3 3 -9 -2 -12 -12z"/>
<path d="M7350 10640 c0 -5 5 -10 10 -10 6 0 10 5 10 10 0 6 -4 10 -10 10 -5
0 -10 -4 -10 -10z"/>
<path d="M7820 10641 c0 -17 19 -22 37 -11 17 11 17 11 1 6 -10 -3 -18 -1 -18
4 0 6 -4 10 -10 10 -5 0 -10 -4 -10 -9z"/>
<path d="M8020 10639 c0 -5 5 -7 10 -4 6 3 10 8 10 11 0 2 -4 4 -10 4 -5 0
-10 -5 -10 -11z"/>
<path d="M11310 10640 c0 -5 5 -10 11 -10 5 0 7 5 4 10 -3 6 -8 10 -11 10 -2
0 -4 -4 -4 -10z"/>
<path d="M5750 10628 c0 -9 5 -20 10 -23 13 -8 13 5 0 25 -8 13 -10 13 -10 -2z"/>
<path d="M6336 10623 c-6 -14 -5 -15 5 -6 7 7 10 15 7 18 -3 3 -9 -2 -12 -12z"/>
<path d="M8300 10627 c-14 -11 -25 -37 -16 -37 2 0 11 11 20 25 18 28 18 30
-4 12z"/>
<path d="M5484 10616 c4 -11 0 -26 -10 -37 -15 -17 -15 -19 2 -36 17 -17 18
-17 11 1 -5 11 -2 25 7 35 13 14 13 19 -1 36 -14 18 -15 19 -9 1z"/>
<path d="M7065 10610 c-4 -12 -4 -24 -1 -27 3 -4 6 1 6 10 0 21 9 21 30 2 14
-13 16 -12 16 5 0 10 -4 16 -9 13 -4 -2 -14 0 -22 7 -10 9 -15 6 -20 -10z"/>
<path d="M7460 10620 c-8 -5 -15 -25 -16 -45 0 -27 2 -32 8 -21 5 9 6 25 3 36
-5 15 -3 18 9 14 11 -4 16 -1 16 10 0 19 0 19 -20 6z"/>
<path d="M7713 10604 c-24 -27 -30 -39 -13 -29 6 3 10 1 10 -5 0 -7 7 -9 17
-6 9 4 20 1 24 -6 5 -8 8 -5 6 9 -1 17 -5 20 -18 12 -19 -10 -37 5 -19 16 5 3
10 3 10 -1 0 -3 7 -1 15 6 8 7 15 18 15 24 0 6 -4 5 -9 -3 -5 -8 -10 -9 -12
-3 -2 6 -14 0 -26 -14z"/>
<path d="M8485 10613 c-5 -10 -9 -24 -9 -32 -1 -18 -43 -30 -85 -25 l-32 4 27
-25 c15 -14 21 -25 14 -25 -7 0 -11 -2 -9 -5 3 -2 15 -1 28 2 l23 6 -23 13
c-24 13 -24 13 -2 14 12 0 30 3 40 6 13 4 14 3 5 -3 -10 -8 -9 -13 4 -24 12
-9 15 -10 10 -1 -5 8 0 12 13 12 24 0 27 10 9 28 -7 7 -8 12 -4 12 5 0 3 7 -4
15 -7 9 -8 15 -2 15 5 0 12 7 16 15 8 21 -10 19 -19 -2z"/>
<path d="M10104 10619 c2 -15 20 -13 24 3 3 10 2 10 -6 -1 -7 -9 -11 -10 -15
-2 -4 7 -5 8 -3 0z"/>
<path d="M6923 10607 c-23 -10 -31 -27 -13 -27 6 0 10 6 10 13 0 8 3 7 10 -3
10 -17 23 -8 18 13 -2 11 -8 12 -25 4z"/>
<path d="M7855 10610 c-3 -6 1 -7 9 -4 18 7 21 14 7 14 -6 0 -13 -4 -16 -10z"/>
<path d="M8519 10618 c-5 -10 -7 -59 -3 -55 6 6 13 57 8 57 -2 0 -5 -1 -5 -2z"/>
<path d="M11310 10610 c0 -5 5 -10 11 -10 5 0 7 5 4 10 -3 6 -8 10 -11 10 -2
0 -4 -4 -4 -10z"/>
<path d="M6240 10600 c0 -5 5 -10 11 -10 5 0 7 5 4 10 -3 6 -8 10 -11 10 -2 0
-4 -4 -4 -10z"/>
<path d="M7910 10600 c-9 -6 -10 -10 -3 -10 6 0 15 5 18 10 8 12 4 12 -15 0z"/>
<path d="M8022 10584 c-12 -13 -19 -24 -14 -24 5 0 19 11 32 25 13 14 19 25
14 24 -5 0 -19 -11 -32 -25z"/>
<path d="M8240 10596 c7 -7 13 -7 20 0 6 6 3 10 -10 10 -13 0 -16 -4 -10 -10z"/>
<path d="M9721 10596 c-9 -10 -8 -15 4 -20 10 -4 15 1 15 14 0 24 -4 25 -19 6z"/>
<path d="M6959 10588 c-1 -7 0 -20 1 -28 2 -12 -1 -12 -16 2 -18 15 -20 15
-41 -2 -12 -9 -19 -20 -16 -24 9 -9 226 -7 238 2 6 4 10 14 11 22 1 18 -49 21
-65 5 -7 -7 -31 -9 -58 -5 -39 4 -47 9 -45 23 2 9 0 17 -3 17 -3 0 -6 -6 -6
-12z m141 -28 c0 -5 -4 -10 -10 -10 -5 0 -10 5 -10 10 0 6 5 10 10 10 6 0 10
-4 10 -10z"/>
<path d="M7861 10585 c-20 -10 -21 -13 -7 -18 9 -4 24 -3 35 1 15 5 16 10 7
18 -9 9 -18 8 -35 -1z"/>
<path d="M8155 10589 c-9 -14 1 -22 30 -26 15 -2 25 1 25 9 0 9 3 9 10 -2 5
-8 10 -12 10 -7 0 4 14 0 31 -8 17 -9 33 -14 37 -11 3 3 0 6 -6 6 -7 0 -12 5
-12 11 0 6 7 8 16 5 8 -3 13 -2 9 3 -3 5 1 12 7 15 13 6 -16 1 -51 -9 -10 -3
-26 2 -35 10 -15 15 -17 15 -22 1 -3 -9 -10 -16 -16 -16 -5 0 -6 6 -2 13 5 7
0 6 -11 -3 -17 -14 -18 -13 -12 3 7 19 2 23 -8 6z"/>
<path d="M9206 10587 c3 -10 9 -15 12 -12 3 3 0 11 -7 18 -10 9 -11 8 -5 -6z"/>
<path d="M9675 10590 c4 -6 11 -8 16 -5 14 9 11 15 -7 15 -8 0 -12 -5 -9 -10z"/>
<path d="M6207 10571 c-4 -17 -3 -21 5 -13 5 5 8 16 6 23 -3 8 -7 3 -11 -10z"/>
<path d="M7345 10580 c3 -5 10 -10 16 -10 5 0 9 5 9 10 0 6 -7 10 -16 10 -8 0
-12 -4 -9 -10z"/>
<path d="M7934 10582 c3 -6 1 -12 -5 -14 -7 -2 6 -4 27 -5 21 0 32 2 24 5 -8
2 -23 9 -34 14 -12 7 -16 7 -12 0z"/>
<path d="M8056 10581 c-4 -7 -5 -15 -2 -18 9 -9 19 4 14 18 -4 11 -6 11 -12 0z"/>
<path d="M9890 10577 c0 -12 -16 -16 -81 -19 -45 -2 -83 1 -86 6 -3 4 -9 2
-14 -5 -6 -11 -11 -10 -26 4 -18 15 -19 15 -21 -8 l-2 -25 114 0 c110 0 115 1
122 23 7 21 7 21 15 2 6 -15 8 -16 8 -4 1 9 -6 22 -14 29 -12 10 -15 10 -15
-3z"/>
<path d="M5758 10573 c7 -3 16 -2 19 1 4 3 -2 6 -13 5 -11 0 -14 -3 -6 -6z"/>
<path d="M8763 10530 c0 -30 2 -43 4 -27 2 15 2 39 0 55 -2 15 -4 2 -4 -28z"/>
<path d="M9185 10570 c3 -5 8 -10 11 -10 2 0 4 5 4 10 0 6 -5 10 -11 10 -5 0
-7 -4 -4 -10z"/>
<path d="M6237 10563 c-10 -16 20 -43 46 -42 22 2 22 2 1 6 -12 2 -26 14 -31
25 -6 14 -12 18 -16 11z"/>
<path d="M6556 10554 c-11 -7 -16 -17 -13 -21 4 -4 15 1 24 10 22 21 14 30
-11 11z"/>
<path d="M5750 10546 c7 -7 14 -6 21 1 9 9 7 12 -9 10 -14 -1 -18 -5 -12 -11z"/>
<path d="M6275 10550 c3 -5 8 -10 11 -10 2 0 4 5 4 10 0 6 -5 10 -11 10 -5 0
-7 -4 -4 -10z"/>
<path d="M6305 10550 c3 -5 8 -10 11 -10 2 0 4 5 4 10 0 6 -5 10 -11 10 -5 0
-7 -4 -4 -10z"/>
<path d="M8317 10554 c-6 -6 45 -54 58 -54 5 0 -4 11 -18 24 -14 13 -23 27
-20 30 4 3 2 6 -4 6 -5 0 -12 -3 -16 -6z"/>
<path d="M9146 10525 c-9 -14 -13 -25 -9 -24 21 3 27 -2 13 -12 -13 -9 -12
-10 3 -5 16 5 17 -8 19 -167 l2 -172 6 170 c4 147 3 172 -11 185 -9 8 -14 21
-11 29 4 11 6 11 13 0 6 -9 9 -10 9 -2 0 23 -18 22 -34 -2z"/>
<path d="M4250 10530 c0 -6 -5 -8 -12 -4 -6 4 -8 3 -4 -4 3 -6 -2 -13 -11 -15
-13 -3 -12 -5 5 -6 13 0 21 -5 18 -9 -2 -4 4 -8 15 -8 18 0 18 2 5 12 -17 12
-22 29 -6 19 6 -3 10 -2 10 4 0 5 -4 13 -10 16 -5 3 -10 1 -10 -5z"/>
<path d="M6205 10523 c3 -8 5 -18 5 -21 0 -8 20 20 20 29 0 3 -7 6 -15 6 -10
0 -14 -6 -10 -14z"/>
<path d="M6654 10466 c1 -41 4 -72 7 -70 7 4 5 131 -2 139 -3 2 -5 -29 -5 -69z"/>
<path d="M8241 10526 c-10 -12 -8 -13 8 -9 12 3 21 9 21 14 0 14 -16 11 -29
-5z"/>
<path d="M7446 10504 c-4 -14 -5 -28 -3 -31 3 -2 8 8 11 23 4 14 5 28 3 31 -3
2 -8 -8 -11 -23z"/>
<path d="M8298 10523 c10 -4 10 -8 0 -21 -12 -15 -11 -16 4 -3 19 14 15 32 -5
30 -8 0 -8 -2 1 -6z"/>
<path d="M9770 10520 l-125 -6 133 -1 c72 -1 135 3 138 8 3 5 -1 8 -8 7 -7 -1
-69 -5 -138 -8z"/>
<path d="M10121 10514 c0 -11 3 -14 6 -6 3 7 2 16 -1 19 -3 4 -6 -2 -5 -13z"/>
<path d="M5476 10501 c-18 -19 -17 -19 18 -9 25 8 32 14 24 20 -19 11 -23 10
-42 -11z"/>
<path d="M6540 10508 c0 -11 28 -10 35 1 3 6 -4 9 -15 8 -11 -1 -20 -5 -20 -9z"/>
<path d="M6943 10513 c37 -2 97 -2 135 0 37 2 6 3 -68 3 -74 0 -105 -1 -67 -3z"/>
<path d="M6266 10502 c-3 -6 -2 -13 4 -17 6 -4 5 -11 -3 -19 -13 -15 -27 -12
-27 5 0 6 5 7 12 3 7 -5 8 -3 3 6 -6 10 -11 9 -22 -6 -12 -16 -12 -20 2 -30 8
-6 15 -16 15 -23 0 -6 7 -11 15 -11 8 0 15 5 15 10 0 6 -5 10 -11 10 -5 0 -7
5 -4 10 4 6 10 8 14 6 4 -3 13 4 20 16 7 11 8 17 2 13 -6 -3 -15 4 -19 16 -5
14 -11 18 -16 11z"/>
<path d="M8245 10500 c-13 -6 -15 -9 -5 -9 8 0 22 4 30 9 18 12 2 12 -25 0z"/>
<path d="M9431 10494 c0 -11 3 -14 6 -6 3 7 2 16 -1 19 -3 4 -6 -2 -5 -13z"/>
<path d="M11396 10501 c-3 -5 1 -11 9 -14 9 -4 12 -1 8 9 -6 16 -10 17 -17 5z"/>
<path d="M5518 10483 c7 -3 16 -2 19 1 4 3 -2 6 -13 5 -11 0 -14 -3 -6 -6z"/>
<path d="M6555 10480 c-3 -6 1 -7 9 -4 18 7 21 14 7 14 -6 0 -13 -4 -16 -10z"/>
<path d="M7670 10442 l5 -47 3 39 c2 21 0 42 -5 47 -4 4 -6 -13 -3 -39z"/>
<path d="M5789 10458 c0 -22 -1 -22 -9 -3 -8 19 -9 19 -9 -1 -1 -12 6 -24 14
-28 11 -4 15 2 15 24 0 35 -10 41 -11 8z"/>
<path d="M5828 10473 c7 -3 16 -2 19 1 4 3 -2 6 -13 5 -11 0 -14 -3 -6 -6z"/>
<path d="M8154 10460 c0 -24 3 -24 21 -6 15 14 10 26 -10 26 -6 0 -11 -9 -11
-20z"/>
<path d="M6019 10468 c-1 -2 -3 -12 -5 -23 -5 -33 -12 -64 -19 -78 -4 -6 0 -4
8 5 12 16 14 14 14 -13 0 -17 -4 -25 -8 -18 -4 7 -7 2 -7 -12 0 -13 -3 -35 -6
-49 -5 -21 -5 -22 3 -5 9 19 10 19 10 -3 1 -13 5 -20 11 -17 6 3 10 1 10 -4 0
-6 4 -11 8 -11 5 0 6 14 4 31 -3 21 -1 30 6 25 8 -4 10 6 7 31 -2 21 -4 43 -4
49 -1 7 -10 14 -22 17 -14 4 -18 10 -13 19 8 12 13 58 7 58 -2 0 -4 -1 -4 -2z
m18 -110 c-3 -8 -6 -5 -6 6 -1 11 2 17 5 13 3 -3 4 -12 1 -19z m-6 -61 c-17
-17 -24 -1 -9 22 11 18 14 19 16 5 2 -9 -1 -21 -7 -27z"/>
<path d="M11394 10458 c-5 -7 -2 -9 9 -5 9 3 18 1 20 -6 2 -7 8 -8 13 -4 5 4
2 12 -6 17 -20 13 -27 12 -36 -2z"/>
<path d="M4176 10441 c-10 -11 -14 -25 -10 -36 6 -14 4 -16 -6 -10 -8 5 -11 4
-7 -2 4 -5 -2 -19 -12 -29 -14 -16 -15 -22 -5 -32 8 -7 15 -8 19 -2 3 6 11 10
16 10 6 0 7 -6 3 -12 -5 -9 -2 -9 9 1 18 15 23 26 7 16 -5 -3 -10 -1 -10 6 0
8 -4 8 -15 -1 -29 -24 -25 -3 6 28 28 29 30 37 7 33 -16 -2 -7 17 15 32 12 9
17 16 11 16 -6 1 -18 -7 -28 -18z"/>
<path d="M5820 10448 c0 -4 4 -8 9 -8 6 0 12 4 15 8 3 5 -1 9 -9 9 -8 0 -15
-4 -15 -9z"/>
<path d="M6505 10430 c-3 -6 1 -7 9 -4 18 7 21 14 7 14 -6 0 -13 -4 -16 -10z"/>
<path d="M10117 10418 c-3 -12 -3 -28 1 -35 5 -8 8 0 9 22 1 40 -2 44 -10 13z"/>
<path d="M6551 10414 c0 -11 3 -14 6 -6 3 7 2 16 -1 19 -3 4 -6 -2 -5 -13z"/>
<path d="M7347 10416 c-4 -10 -1 -13 8 -9 8 3 12 9 9 14 -7 12 -11 11 -17 -5z"/>
<path d="M11428 10423 c7 -3 16 -2 19 1 4 3 -2 6 -13 5 -11 0 -14 -3 -6 -6z"/>
<path d="M11390 10416 c0 -2 7 -7 16 -10 8 -3 12 -2 9 4 -6 10 -25 14 -25 6z"/>
<path d="M5549 10397 c7 -10 9 -17 3 -17 -12 0 -9 -97 3 -108 5 -4 5 -2 1 5
-3 6 -2 15 4 18 8 5 7 12 -2 23 -11 13 -10 15 5 9 9 -3 17 -2 17 3 0 6 -4 10
-9 10 -5 0 -11 7 -14 14 -4 10 -1 13 9 9 11 -4 12 0 6 18 -5 13 -15 25 -23 28
-12 4 -12 2 0 -12z"/>
<path d="M6508 10403 c6 -2 18 -2 25 0 6 3 1 5 -13 5 -14 0 -19 -2 -12 -5z"/>
<path d="M11448 10403 c7 -3 16 -2 19 1 4 3 -2 6 -13 5 -11 0 -14 -3 -6 -6z"/>
<path d="M6240 10389 c0 -5 5 -7 11 -3 6 3 15 1 19 -6 5 -9 8 -8 12 2 4 9 -2
14 -18 16 -13 1 -24 -3 -24 -9z"/>
<path d="M7346 10385 c-18 -18 -30 -20 -20 -2 6 8 3 8 -9 -1 -9 -8 -20 -11
-25 -8 -5 3 -9 -1 -9 -9 0 -11 7 -13 26 -8 14 4 35 6 46 6 11 -1 14 1 7 4 -10
4 -10 8 -1 19 15 19 4 18 -15 -1z"/>
<path d="M8080 10393 c0 -2 9 -12 19 -22 16 -16 20 -17 25 -5 4 10 2 12 -6 8
-7 -5 -9 -2 -6 7 4 10 -1 15 -13 15 -11 0 -19 -2 -19 -3z"/>
<path d="M7660 10381 c0 -5 5 -13 10 -16 6 -3 10 -2 10 4 0 5 -4 13 -10 16 -5
3 -10 2 -10 -4z"/>
<path d="M5800 10364 c0 -8 5 -12 10 -9 6 3 10 10 10 16 0 5 -4 9 -10 9 -5 0
-10 -7 -10 -16z"/>
<path d="M6876 10371 c-4 -7 -5 -15 -2 -18 9 -9 19 4 14 18 -4 11 -6 11 -12 0z"/>
<path d="M10090 10370 c0 -5 5 -10 11 -10 5 0 7 5 4 10 -3 6 -8 10 -11 10 -2
0 -4 -4 -4 -10z"/>
<path d="M8070 10348 c0 -19 2 -20 10 -8 13 19 13 30 0 30 -5 0 -10 -10 -10
-22z"/>
<path d="M8382 10355 c-7 -9 -11 -21 -9 -28 4 -9 6 -9 6 0 1 7 8 10 18 6 12
-5 14 -3 8 7 -6 10 0 11 31 5 52 -9 56 -13 43 -36 -7 -15 -7 -24 1 -34 14 -16
43 -13 48 6 3 11 1 11 -7 -1 -9 -12 -11 -11 -11 7 0 17 4 21 18 17 12 -4 13
-3 4 3 -7 5 -10 17 -6 26 3 10 1 17 -5 17 -6 0 -11 -9 -11 -19 0 -11 -5 -23
-10 -26 -6 -4 -8 -11 -5 -16 4 -5 1 -9 -4 -9 -14 0 -14 17 -1 25 5 3 8 15 7
27 -3 15 -12 22 -33 23 -16 2 -38 5 -49 9 -12 3 -25 0 -33 -9z"/>
<path d="M10056 10345 c-4 -12 -36 -15 -178 -17 l-173 -2 168 -3 c133 -3 172
-1 188 11 11 8 16 17 11 20 -6 3 -12 -1 -16 -9z"/>
<path d="M10104 10346 c-10 -8 -16 -17 -13 -20 3 -3 14 3 24 14 21 23 17 26
-11 6z"/>
<path d="M7318 10338 c5 -5 19 -5 33 1 22 8 22 9 -9 9 -19 -1 -29 -5 -24 -10z"/>
<path d="M8351 10334 c0 -11 3 -14 6 -6 3 7 2 16 -1 19 -3 4 -6 -2 -5 -13z"/>
<path d="M7125 10330 l-160 -6 162 -2 c99 -1 164 2 168 8 3 6 3 9 -2 8 -4 -1
-80 -5 -168 -8z"/>
<path d="M11488 10326 c-10 -7 -18 -18 -18 -24 0 -15 28 -23 33 -9 3 9 8 9 18
0 11 -11 11 -13 -1 -13 -7 0 -10 -3 -7 -7 4 -3 3 -11 -1 -18 -4 -6 1 -3 10 8
14 15 15 22 5 38 -6 10 -15 19 -20 19 -4 0 -5 5 -2 10 8 13 4 12 -17 -4z m12
-16 c0 -5 -5 -10 -11 -10 -5 0 -7 5 -4 10 3 6 8 10 11 10 2 0 4 -4 4 -10z"/>
<path d="M5981 10323 c-1 -6 -4 -20 -7 -30 -5 -17 -5 -17 6 0 6 10 9 23 6 30
-3 9 -5 9 -5 0z"/>
<path d="M6907 10313 c5 -12 3 -14 -7 -8 -9 5 -11 4 -6 -4 4 -6 12 -9 17 -6
12 8 12 35 -1 35 -5 0 -6 -7 -3 -17z"/>
<path d="M7710 10315 c0 -16 -2 -17 -10 -5 -7 12 -9 11 -8 -6 2 -24 28 -28 28
-5 1 10 7 5 16 -11 17 -33 20 -34 20 -8 0 10 -2 17 -4 15 -3 -2 -13 6 -23 18
-18 21 -18 21 -19 2z"/>
<path d="M8030 10321 c0 -6 4 -13 10 -16 6 -3 7 1 4 9 -7 18 -14 21 -14 7z"/>
<path d="M8095 10320 c-3 -5 -12 -7 -20 -3 -8 3 -15 1 -15 -5 0 -5 6 -12 14
-15 7 -3 18 -23 24 -44 10 -37 10 -37 9 20 -1 60 -2 63 -12 47z"/>
<path d="M8438 10323 c6 -2 18 -2 25 0 6 3 1 5 -13 5 -14 0 -19 -2 -12 -5z"/>
<path d="M9660 10321 c0 -5 10 -11 23 -13 14 -2 21 -9 21 -21 -2 -23 8 -22 23
3 10 16 10 18 -1 14 -7 -3 -19 2 -26 11 -14 16 -40 20 -40 6z"/>
<path d="M6483 10313 c-18 -7 -16 -20 2 -20 8 0 15 6 15 14 0 7 -1 13 -2 12
-2 0 -9 -3 -15 -6z"/>
<path d="M6943 10308 c-9 -14 -12 -60 -3 -52 3 3 5 16 5 27 0 13 5 21 13 19 8
-1 11 2 7 8 -8 13 -12 13 -22 -2z"/>
<path d="M6653 10296 c0 -8 4 -13 9 -10 4 3 8 -4 8 -15 0 -12 4 -21 9 -21 12
0 -2 53 -15 57 -6 2 -11 -3 -11 -11z"/>
<path d="M7440 10285 c0 -14 2 -25 4 -25 2 0 6 11 8 25 3 14 1 25 -3 25 -5 0
-9 -11 -9 -25z"/>
<path d="M7910 10306 c0 -8 61 -12 66 -4 3 4 -11 8 -30 8 -20 0 -36 -2 -36 -4z"/>
<path d="M8018 10290 c13 -11 18 -21 12 -25 -5 -3 -10 -14 -10 -23 0 -12 4
-10 13 8 12 22 11 27 -4 43 -10 9 -22 17 -26 17 -4 -1 2 -9 15 -20z"/>
<path d="M4110 10290 c0 -5 5 -10 11 -10 5 0 7 5 4 10 -3 6 -8 10 -11 10 -2 0
-4 -4 -4 -10z"/>
<path d="M9433 10288 c-16 -20 -25 -68 -13 -68 5 0 10 7 10 15 0 9 6 12 18 9
13 -5 14 -4 3 4 -8 6 -11 18 -6 31 7 24 2 27 -12 9z"/>
<path d="M5570 10280 c0 -5 5 -10 11 -10 5 0 7 5 4 10 -3 6 -8 10 -11 10 -2 0
-4 -4 -4 -10z"/>
<path d="M6479 10267 c6 -8 8 -17 4 -20 -3 -4 -1 -7 5 -7 6 0 10 9 9 20 -1 11
-8 20 -15 20 -11 0 -12 -3 -3 -13z"/>
<path d="M8070 10246 c0 -14 4 -27 8 -30 5 -3 6 8 4 25 -5 35 -12 38 -12 5z"/>
<path d="M9725 10260 c-3 -5 -1 -10 4 -10 6 0 11 5 11 10 0 6 -2 10 -4 10 -3
0 -8 -4 -11 -10z"/>
<path d="M5540 10253 c0 -5 5 -15 10 -23 8 -12 10 -11 10 8 0 12 -4 22 -10 22
-5 0 -10 -3 -10 -7z"/>
<path d="M6654 10221 c1 -47 5 -49 29 -21 19 23 23 40 5 22 -16 -16 -31 -15
-25 1 3 8 2 20 -3 27 -4 7 -7 -5 -6 -29z"/>
<path d="M7451 10242 c-17 -31 -13 -40 5 -14 9 13 14 26 11 29 -3 2 -10 -4
-16 -15z"/>
<path d="M7725 10250 c3 -5 8 -10 11 -10 2 0 4 5 4 10 0 6 -5 10 -11 10 -5 0
-7 -4 -4 -10z"/>
<path d="M8463 10239 c-10 -21 -12 -22 -12 -4 -1 16 -3 17 -13 6 -11 -11 -10
-14 0 -18 6 -3 9 -10 5 -16 -3 -7 3 -4 14 6 11 9 22 15 25 12 3 -3 11 1 18 10
8 10 9 15 1 15 -6 0 -11 -6 -12 -12 0 -7 -4 -5 -8 6 -6 17 -8 16 -18 -5z"/>
<path d="M6969 10241 c11 -7 11 -9 0 -14 -8 -3 3 -6 23 -6 20 -1 40 -5 43 -11
3 -5 14 -10 23 -9 12 0 11 3 -5 9 -28 11 -31 24 -4 15 11 -3 22 -2 25 3 3 6
-3 12 -14 15 -11 3 -22 1 -25 -4 -3 -4 -17 -4 -31 1 -32 13 -54 13 -35 1z"/>
<path d="M7105 10240 c-4 -7 6 -10 25 -8 41 3 50 18 11 18 -16 0 -33 -5 -36
-10z"/>
<path d="M8370 10244 c0 -17 38 -47 49 -39 8 4 8 12 0 26 -6 12 -13 18 -16 15
-3 -3 0 -12 7 -21 8 -9 8 -15 2 -15 -6 0 -18 10 -26 22 -9 12 -16 18 -16 12z"/>
<path d="M9773 10240 c-39 -6 -31 -25 11 -27 18 -1 24 2 16 7 -10 6 -9 9 1 12
24 9 5 14 -28 8z"/>
<path d="M9882 10243 c-17 -7 4 -33 27 -32 12 0 11 2 -4 9 -11 5 -14 9 -7 9 6
1 12 6 12 11 0 11 -7 12 -28 3z"/>
<path d="M10104 10235 c-3 -8 -4 -20 -1 -27 3 -8 6 -6 6 5 1 10 5 15 11 12 6
-3 7 1 4 9 -8 20 -13 20 -20 1z"/>
<path d="M11556 10237 c3 -10 9 -15 12 -12 3 3 0 11 -7 18 -10 9 -11 8 -5 -6z"/>
<path d="M7346 10224 c-4 -10 -1 -14 6 -12 15 5 23 28 10 28 -5 0 -13 -7 -16
-16z"/>
<path d="M7776 10229 c6 -11 44 -12 44 -1 0 4 -11 8 -25 8 -14 1 -22 -2 -19
-7z"/>
<path d="M9823 10225 c-3 -9 -3 -19 1 -22 3 -4 6 -2 6 4 0 6 8 10 18 8 9 -1
11 0 4 2 -7 3 -10 9 -7 14 4 5 1 9 -5 9 -6 0 -13 -7 -17 -15z"/>
<path d="M9930 10236 c0 -2 9 -6 20 -9 11 -3 18 -1 14 4 -5 9 -34 13 -34 5z"/>
<path d="M5971 10214 c0 -11 3 -14 6 -6 3 7 2 16 -1 19 -3 4 -6 -2 -5 -13z"/>
<path d="M6011 10214 c0 -11 3 -14 6 -6 3 7 2 16 -1 19 -3 4 -6 -2 -5 -13z"/>
<path d="M7463 10210 c-3 -11 -10 -17 -15 -14 -5 3 -4 -3 4 -15 14 -22 28 -28
28 -11 0 6 -4 10 -10 10 -6 0 -6 9 0 25 5 14 7 25 4 25 -3 0 -8 -9 -11 -20z"/>
<path d="M8345 10220 c-3 -5 -1 -10 4 -10 6 0 11 5 11 10 0 6 -2 10 -4 10 -3
0 -8 -4 -11 -10z"/>
<path d="M9450 10220 c-9 -6 -10 -10 -3 -10 6 0 15 5 18 10 8 12 4 12 -15 0z"/>
<path d="M7093 10213 c9 -2 25 -2 35 0 9 3 1 5 -18 5 -19 0 -27 -2 -17 -5z"/>
<path d="M8050 10204 c0 -8 5 -12 10 -9 6 4 8 11 5 16 -9 14 -15 11 -15 -7z"/>
<path d="M5988 10185 c-3 -14 -1 -25 3 -25 5 0 9 11 9 25 0 14 -2 25 -4 25 -2
0 -6 -11 -8 -25z"/>
<path d="M9425 10201 c4 -8 2 -17 -6 -22 -9 -6 -10 -9 -2 -9 19 0 27 21 13 33
-10 9 -11 9 -5 -2z"/>
<path d="M10110 10182 c-8 -15 -16 -30 -18 -34 -2 -5 1 -8 5 -8 9 0 35 61 30
67 -2 2 -10 -9 -17 -25z"/>
<path d="M11570 10199 c0 -5 5 -7 10 -4 6 3 10 8 10 11 0 2 -4 4 -10 4 -5 0
-10 -5 -10 -11z"/>
<path d="M7350 10190 c0 -5 5 -10 10 -10 6 0 10 5 10 10 0 6 -4 10 -10 10 -5
0 -10 -4 -10 -10z"/>
<path d="M7480 10196 c0 -2 7 -9 15 -16 13 -11 14 -10 9 4 -5 14 -24 23 -24
12z"/>
<path d="M8082 10180 c0 -14 2 -19 5 -12 2 6 2 18 0 25 -3 6 -5 1 -5 -13z"/>
<path d="M6705 10180 c-4 -6 -10 -8 -15 -5 -5 3 -11 1 -14 -4 -8 -13 22 -7 36
7 7 7 9 12 6 12 -4 0 -10 -5 -13 -10z"/>
<path d="M9446 10175 c-3 -9 2 -13 15 -12 22 2 25 13 5 20 -8 3 -17 0 -20 -8z"/>
<path d="M6470 10169 c0 -5 5 -7 10 -4 6 3 10 8 10 11 0 2 -4 4 -10 4 -5 0
-10 -5 -10 -11z"/>
<path d="M5626 10157 c3 -10 9 -15 12 -12 3 3 0 11 -7 18 -10 9 -11 8 -5 -6z"/>
<path d="M8100 10151 c0 -7 -5 -9 -12 -5 -7 4 -8 3 -4 -5 4 -6 11 -9 16 -6 5
3 13 -3 19 -12 5 -10 12 -16 14 -13 3 3 -3 16 -14 29 -10 13 -19 18 -19 12z"/>
<path d="M8760 10126 c0 -19 3 -37 8 -40 4 -2 6 13 4 35 -5 48 -12 51 -12 5z"/>
<path d="M6739 10148 c-6 -22 -7 -70 -2 -64 7 7 14 66 7 66 -2 0 -4 -1 -5 -2z"/>
<path d="M7321 10140 c0 -8 11 -23 24 -33 24 -18 25 -17 25 4 0 14 -5 19 -15
15 -8 -3 -19 2 -24 12 -8 14 -10 14 -10 2z"/>
<path d="M6100 10132 c0 -4 5 -23 10 -42 8 -28 7 -37 -6 -47 -10 -7 -12 -13
-4 -18 5 -3 8 -11 5 -16 -3 -5 1 -6 10 -2 13 4 14 8 4 14 -10 6 -9 12 5 28 12
13 14 21 7 21 -7 0 -11 8 -10 18 3 33 -1 52 -11 52 -5 0 -10 -3 -10 -8z"/>
<path d="M7533 10122 c-5 -4 -7 -15 -4 -24 6 -17 7 -16 18 2 13 20 5 34 -14
22z"/>
<path d="M8066 10123 c-12 -12 -6 -25 8 -20 8 3 16 1 19 -6 2 -7 6 -7 10 -1 6
11 -27 36 -37 27z"/>
<path d="M9497 10124 c7 -3 10 -11 7 -19 -8 -20 14 -28 30 -12 18 18 2 37 -28
36 -12 0 -16 -3 -9 -5z m25 -26 c-7 -7 -12 -8 -12 -2 0 14 12 26 19 19 2 -3
-1 -11 -7 -17z"/>
<path d="M10106 10116 c3 -8 1 -17 -5 -21 -6 -3 -11 -1 -11 5 0 6 -4 8 -10 5
-19 -12 -10 -23 15 -20 14 1 28 5 32 8 8 9 -4 37 -16 37 -6 0 -8 -6 -5 -14z"/>
<path d="M3990 10108 c0 -9 -6 -19 -12 -21 -7 -3 -8 -6 -3 -6 6 0 17 4 25 9
12 7 12 12 2 22 -9 9 -12 9 -12 -4z"/>
<path d="M8550 10101 c-13 -25 -13 -31 2 -31 6 0 8 3 5 6 -3 4 -2 15 4 25 5
11 7 19 5 19 -3 0 -10 -9 -16 -19z"/>
<path d="M5636 10097 c3 -8 1 -24 -5 -35 -12 -23 -4 -55 13 -49 6 2 12 12 14
23 3 15 1 16 -7 4 -16 -24 -21 -6 -6 22 11 23 11 29 -1 39 -12 10 -13 9 -8 -4z"/>
<path d="M6761 10103 c-1 -18 13 -23 29 -11 12 8 12 9 -2 5 -9 -3 -19 -1 -22
6 -3 9 -5 9 -5 0z"/>
<path d="M8013 10095 c-9 -10 -7 -13 13 -11 26 1 32 11 11 19 -6 2 -17 -1 -24
-8z"/>
<path d="M8164 10079 c9 -14 28 -31 42 -38 14 -6 23 -7 20 -2 -4 5 0 12 6 15
7 3 3 3 -9 0 -15 -3 -29 4 -48 23 -27 28 -27 28 -11 2z"/>
<path d="M11643 10086 c3 -7 0 -20 -6 -27 -10 -11 -9 -11 6 0 10 8 17 9 17 3
0 -6 -5 -14 -10 -17 -12 -8 5 -45 21 -45 6 0 3 7 -6 16 -12 12 -13 19 -5 29 8
10 8 19 0 34 -12 23 -25 29 -17 7z"/>
<path d="M6405 10080 c3 -5 8 -10 11 -10 2 0 4 5 4 10 0 6 -5 10 -11 10 -5 0
-7 -4 -4 -10z"/>
<path d="M6817 10066 c-4 -10 -1 -13 8 -9 8 3 12 9 9 14 -7 12 -11 11 -17 -5z"/>
<path d="M8744 10072 c4 -7 3 -18 -2 -25 -7 -8 -7 -17 1 -28 10 -13 14 -14 25
-3 7 8 8 15 2 19 -6 3 -10 1 -10 -5 0 -6 -5 -8 -10 -5 -8 5 -7 11 1 21 10 12
9 17 -1 27 -10 9 -11 9 -6 -1z"/>
<path d="M8865 10070 c-3 -5 -1 -10 4 -10 6 0 11 5 11 10 0 6 -2 10 -4 10 -3
0 -8 -4 -11 -10z"/>
<path d="M8896 10070 c14 -29 26 -39 40 -33 8 3 14 9 14 14 0 4 -7 6 -15 2 -9
-3 -23 3 -31 13 -9 11 -12 12 -8 4z"/>
<path d="M5916 10054 c-3 -9 0 -24 7 -35 13 -18 14 -17 15 11 1 33 -13 48 -22
24z"/>
<path d="M8511 10050 c14 -11 18 -19 11 -20 -7 0 -10 -4 -7 -10 4 -6 15 -2 27
10 27 25 37 17 13 -10 -10 -11 -13 -20 -7 -20 7 0 12 4 12 9 0 5 7 12 16 15
12 5 15 2 10 -9 -3 -9 -2 -13 4 -10 26 16 -9 56 -44 49 -14 -2 -28 0 -31 6 -3
5 -11 10 -17 10 -5 0 0 -9 13 -20z"/>
<path d="M9160 10049 c0 -11 -5 -17 -10 -14 -6 4 -8 11 -5 16 4 5 2 9 -4 9 -5
0 -13 -5 -17 -11 -4 -8 -9 -7 -16 2 -8 11 -9 11 -5 -1 2 -8 12 -15 23 -15 11
0 19 -7 18 -16 -1 -9 4 -16 11 -16 8 0 11 7 7 15 -3 9 -1 13 5 9 6 -4 8 3 5
18 -5 30 -12 33 -12 4z"/>
<path d="M6144 10044 c-18 -15 -18 -15 2 -5 12 6 25 7 29 3 5 -4 5 -1 1 6 -9
15 -8 15 -32 -4z"/>
<path d="M6836 10045 c-11 -8 -16 -15 -10 -15 5 0 18 7 28 15 11 8 16 15 10
15 -5 0 -18 -7 -28 -15z"/>
<path d="M7603 10037 c1 -15 8 -29 15 -32 15 -6 15 4 -2 35 l-14 25 1 -28z"/>
<path d="M7646 10044 c-4 -9 -4 -19 -1 -22 3 -3 5 0 5 7 0 8 6 11 16 7 14 -5
15 -4 4 9 -16 19 -16 19 -24 -1z"/>
<path d="M7958 10053 c7 -3 16 -2 19 1 4 3 -2 6 -13 5 -11 0 -14 -3 -6 -6z"/>
<path d="M9580 10050 c8 -5 20 -10 25 -10 6 0 3 5 -5 10 -8 5 -19 10 -25 10
-5 0 -3 -5 5 -10z"/>
<path d="M5686 10033 c-6 -14 -5 -15 5 -6 7 7 10 15 7 18 -3 3 -9 -2 -12 -12z"/>
<path d="M5775 10041 c-6 -11 13 -26 22 -17 4 3 1 6 -6 6 -7 0 -9 5 -6 10 3 6
4 10 1 10 -3 0 -7 -4 -11 -9z"/>
<path d="M6258 10043 c6 -2 18 -2 25 0 6 3 1 5 -13 5 -14 0 -19 -2 -12 -5z"/>
<path d="M6869 10038 c-10 -7 -7 -7 9 -3 13 4 22 2 22 -4 0 -6 -5 -11 -11 -11
-5 0 -7 -5 -3 -11 5 -8 9 -8 14 1 4 7 12 10 17 7 5 -3 9 2 9 11 0 19 -35 25
-57 10z"/>
<path d="M8461 10025 c0 -11 3 -14 6 -7 2 6 11 12 19 12 8 0 14 4 14 9 0 6 -9
9 -20 8 -13 -1 -20 -8 -19 -22z"/>
<path d="M8616 10035 c4 -8 11 -15 16 -15 6 0 5 6 -2 15 -7 8 -14 15 -16 15
-2 0 -1 -7 2 -15z"/>
<path d="M5875 10030 c-6 -9 -4 -11 5 -5 9 6 12 4 8 -6 -4 -10 1 -15 13 -16
10 -1 19 3 19 9 0 6 -3 8 -7 5 -3 -4 -11 1 -18 10 -9 13 -14 13 -20 3z"/>
<path d="M6380 10031 c0 -5 7 -11 14 -14 10 -4 13 -1 9 9 -6 15 -23 19 -23 5z"/>
<path d="M7005 10030 c-3 -5 1 -10 9 -10 9 0 16 5 16 10 0 6 -4 10 -9 10 -6 0
-13 -4 -16 -10z"/>
<path d="M7063 10033 c-17 -6 -17 -20 0 -20 8 0 14 6 14 14 0 7 -1 13 -1 12
-1 0 -7 -3 -13 -6z"/>
<path d="M7140 10029 c0 -5 5 -7 10 -4 6 3 10 8 10 11 0 2 -4 4 -10 4 -5 0
-10 -5 -10 -11z"/>
<path d="M7175 10030 c-3 -5 -2 -10 4 -10 5 0 13 5 16 10 3 6 2 10 -4 10 -5 0
-13 -4 -16 -10z"/>
<path d="M7828 10029 c-2 -6 -19 -14 -38 -19 l-35 -8 43 -1 c24 -1 41 3 38 8
-4 5 -1 11 6 13 9 3 9 6 1 11 -6 4 -13 2 -15 -4z"/>
<path d="M7980 10029 c0 -7 -10 -9 -26 -5 -24 6 -25 5 -11 -9 19 -19 25 -19
43 -1 16 17 18 26 4 26 -5 0 -10 -5 -10 -11z"/>
<path d="M8400 10023 c0 -13 5 -23 10 -23 13 0 13 11 0 30 -8 12 -10 11 -10
-7z"/>
<path d="M8980 10030 c-12 -8 -11 -10 8 -10 12 0 22 5 22 10 0 13 -11 13 -30
0z"/>
<path d="M9077 10023 c6 -16 5 -16 -10 -5 -9 8 -22 12 -29 9 -9 -4 -7 -6 4 -6
9 -1 18 -6 20 -12 2 -7 13 -9 26 -4 19 5 21 9 11 21 -16 20 -30 18 -22 -3z"/>
<path d="M9575 10031 c-2 -5 7 -13 20 -19 20 -9 25 -9 25 2 0 15 -37 29 -45
17z"/>
<path d="M9778 10033 c7 -3 16 -2 19 1 4 3 -2 6 -13 5 -11 0 -14 -3 -6 -6z"/>
<path d="M9878 10028 c9 -9 15 -9 24 0 9 9 7 12 -12 12 -19 0 -21 -3 -12 -12z"/>
<path d="M9919 10020 c-13 -10 -19 -19 -13 -20 5 0 15 5 22 12 9 9 12 9 12 0
0 -17 17 -15 23 2 4 11 1 13 -10 9 -11 -4 -14 -2 -9 5 11 18 1 15 -25 -8z"/>
<path d="M10015 10030 c-3 -5 1 -10 10 -10 9 0 13 5 10 10 -3 6 -8 10 -10 10
-2 0 -7 -4 -10 -10z"/>
<path d="M5710 10020 c-8 -5 -11 -12 -7 -16 4 -4 15 0 24 9 18 18 8 23 -17 7z"/>
<path d="M6176 10015 c4 -8 8 -15 10 -15 2 0 4 7 4 15 0 8 -4 15 -10 15 -5 0
-7 -7 -4 -15z"/>
<path d="M6210 10020 c0 -5 7 -10 15 -10 8 0 15 5 15 10 0 6 -7 10 -15 10 -8
0 -15 -4 -15 -10z"/>
<path d="M6304 10015 c-16 -12 -16 -14 -3 -15 9 0 22 7 29 15 16 19 0 19 -26
0z"/>
<path d="M6945 10020 c3 -5 11 -10 16 -10 6 0 7 5 4 10 -3 6 -11 10 -16 10 -6
0 -7 -4 -4 -10z"/>
<path d="M7880 10015 c-14 -8 -20 -14 -15 -14 6 0 21 6 35 14 14 8 21 14 15
14 -5 0 -21 -6 -35 -14z"/>
<path d="M8351 10019 c-14 -5 -30 -8 -38 -5 -7 3 -15 0 -19 -6 -5 -8 4 -9 32
-5 21 4 45 7 52 7 6 0 12 5 12 10 0 12 -7 12 -39 -1z"/>
<path d="M8430 10015 c0 -8 5 -15 10 -15 6 0 10 7 10 15 0 8 -4 15 -10 15 -5
0 -10 -7 -10 -15z"/>
<path d="M8860 10026 c0 -2 8 -10 18 -17 15 -13 16 -12 3 4 -13 16 -21 21 -21
13z"/>
<path d="M8935 10020 c-3 -5 1 -10 10 -10 9 0 13 5 10 10 -3 6 -8 10 -10 10
-2 0 -7 -4 -10 -10z"/>
<path d="M6150 10010 c0 -5 5 -10 11 -10 5 0 7 5 4 10 -3 6 -8 10 -11 10 -2 0
-4 -4 -4 -10z"/>
<path d="M7655 10010 c-3 -5 -1 -10 4 -10 6 0 11 5 11 10 0 6 -2 10 -4 10 -3
0 -8 -4 -11 -10z"/>
<path d="M7698 10013 c7 -3 16 -2 19 1 4 3 -2 6 -13 5 -11 0 -14 -3 -6 -6z"/>
<path d="M8240 10010 c0 -5 5 -10 11 -10 5 0 7 5 4 10 -3 6 -8 10 -11 10 -2 0
-4 -4 -4 -10z"/>
<path d="M8651 10016 c12 -10 60 -16 54 -6 -3 5 -18 10 -32 10 -15 0 -24 -2
-22 -4z"/>
<path d="M8900 10009 c0 -5 5 -7 10 -4 6 3 10 8 10 11 0 2 -4 4 -10 4 -5 0
-10 -5 -10 -11z"/>
<path d="M9740 10010 c-24 -8 -23 -8 8 -9 20 -1 31 3 27 9 -3 6 -7 10 -8 9 -1
-1 -13 -5 -27 -9z"/>
<path d="M3938 10003 c6 -2 12 -9 12 -15 0 -6 -7 -8 -15 -4 -9 3 -15 0 -15 -9
0 -12 5 -12 25 -3 14 6 25 15 25 19 0 7 -26 20 -38 18 -4 0 -1 -3 6 -6z"/>
<path d="M7008 10003 c6 -2 18 -2 25 0 6 3 1 5 -13 5 -14 0 -19 -2 -12 -5z"/>
<path d="M7163 10003 c9 -2 23 -2 30 0 6 3 -1 5 -18 5 -16 0 -22 -2 -12 -5z"/>
<path d="M9868 10003 c7 -3 16 -2 19 1 4 3 -2 6 -13 5 -11 0 -14 -3 -6 -6z"/>
<path d="M3935 9940 c-10 -11 -15 -20 -12 -20 4 0 16 9 27 20 11 11 16 20 12
20 -5 0 -17 -9 -27 -20z"/>
<path d="M3890 9940 c-9 -6 -10 -10 -3 -10 6 0 15 5 18 10 8 12 4 12 -15 0z"/>
<path d="M11740 9925 c-1 -11 -2 -24 -1 -29 1 -5 -5 -6 -12 -3 -12 4 -12 1 -3
-19 9 -19 12 -20 15 -7 3 14 6 12 18 -8 9 -16 12 -17 7 -4 -4 11 -10 36 -14
55 -5 22 -9 27 -10 15z"/>
<path d="M3875 9890 c3 -5 8 -10 11 -10 2 0 4 5 4 10 0 6 -5 10 -11 10 -5 0
-7 -4 -4 -10z"/>
<path d="M3856 9867 c3 -10 9 -15 12 -12 3 3 0 11 -7 18 -10 9 -11 8 -5 -6z"/>
<path d="M11799 9808 c-5 -17 -2 -65 4 -61 4 2 7 11 7 19 0 9 5 13 13 9 6 -4
4 0 -5 8 -10 8 -15 17 -11 20 3 4 3 7 0 7 -4 0 -7 -1 -8 -2z"/>
<path d="M3789 9773 c-13 -16 -12 -17 4 -4 16 13 21 21 13 21 -2 0 -10 -8 -17
-17z"/>
<path d="M11820 9752 c0 -5 6 -15 14 -22 8 -6 12 -19 9 -28 -6 -14 -5 -15 9
-2 9 8 13 17 9 20 -3 3 -14 13 -24 23 -9 10 -17 14 -17 9z"/>
<path d="M3755 9710 c-3 -5 -2 -10 4 -10 5 0 13 5 16 10 3 6 2 10 -4 10 -5 0
-13 -4 -16 -10z"/>
<path d="M11802 9704 c10 -10 20 -16 22 -13 3 3 -5 11 -17 18 -21 13 -21 12
-5 -5z"/>
<path d="M11884 9651 c4 -5 0 -11 -6 -14 -10 -4 -10 -7 -1 -16 7 -6 11 -8 8
-4 -3 3 2 15 12 25 15 17 15 18 -1 18 -9 0 -15 -4 -12 -9z"/>
<path d="M3714 9626 c5 -14 2 -17 -9 -12 -10 4 -14 2 -9 -5 4 -6 0 -15 -7 -20
-7 -4 -10 -11 -6 -16 5 -4 12 -1 16 6 5 7 13 11 18 8 12 -7 9 41 -3 51 -4 4
-4 -1 0 -12z"/>
<path d="M3668 9558 c5 -5 16 -8 23 -6 8 3 3 7 -10 11 -17 4 -21 3 -13 -5z"/>
<path d="M11970 9520 c0 -5 -8 -10 -17 -10 -17 -1 -17 -1 0 -11 9 -6 15 -14
12 -19 -3 -5 4 -8 15 -7 19 1 19 3 5 13 -9 7 -13 18 -9 28 3 9 3 16 0 16 -3 0
-6 -4 -6 -10z"/>
<path d="M3610 9435 c-7 -8 -17 -12 -23 -8 -5 3 -7 1 -3 -5 3 -6 2 -14 -4 -17
-8 -5 -7 -11 1 -21 6 -7 16 -11 21 -8 6 4 5 10 -3 15 -12 8 -12 11 1 18 10 7
17 6 23 -2 5 -7 5 -1 1 13 -6 22 -5 23 10 11 14 -12 16 -12 10 3 -8 20 -18 20
-34 1z"/>
<path d="M3629 9383 c-13 -16 -12 -17 4 -4 9 7 17 15 17 17 0 8 -8 3 -21 -13z"/>
<path d="M12055 9381 c3 -5 -3 -17 -12 -27 -16 -16 -16 -16 4 -10 12 4 24 2
28 -4 3 -5 2 -10 -2 -10 -5 0 -9 -9 -10 -20 -1 -16 1 -17 11 -7 8 6 13 16 11
22 -5 22 -25 65 -30 65 -4 0 -4 -4 0 -9z"/>
<path d="M3556 9367 c3 -10 9 -15 12 -12 3 3 0 11 -7 18 -10 9 -11 8 -5 -6z"/>
<path d="M3537 9323 c3 -7 6 -13 8 -13 2 0 5 6 8 13 3 8 -1 14 -8 14 -7 0 -11
-6 -8 -14z"/>
<path d="M12100 9276 c0 -2 7 -7 16 -10 8 -3 12 -2 9 4 -6 10 -25 14 -25 6z"/>
<path d="M3467 9221 c-4 -17 -3 -21 5 -13 5 5 8 16 6 23 -3 8 -7 3 -11 -10z"/>
<path d="M7540 9211 c0 -5 9 -7 20 -4 11 3 20 7 20 9 0 2 -9 4 -20 4 -11 0
-20 -4 -20 -9z"/>
<path d="M8003 9213 c9 -2 23 -2 30 0 6 3 -1 5 -18 5 -16 0 -22 -2 -12 -5z"/>
<path d="M3445 9169 c-10 -30 -2 -32 12 -3 6 13 7 24 3 24 -5 0 -12 -9 -15
-21z"/>
<path d="M8340 9130 c0 -13 11 -13 30 0 12 8 11 10 -7 10 -13 0 -23 -4 -23
-10z"/>
<path d="M7248 9113 c7 -3 16 -2 19 1 4 3 -2 6 -13 5 -11 0 -14 -3 -6 -6z"/>
<path d="M12180 9111 c0 -5 8 -11 18 -13 10 -3 19 0 19 6 0 7 -9 13 -19 13
-10 1 -18 -2 -18 -6z"/>
<path d="M7120 9051 c0 -5 9 -7 20 -4 11 3 20 7 20 9 0 2 -9 4 -20 4 -11 0
-20 -4 -20 -9z"/>
<path d="M3370 9029 c0 -5 5 -7 10 -4 6 3 10 8 10 11 0 2 -4 4 -10 4 -5 0 -10
-5 -10 -11z"/>
<path d="M3390 9015 c-7 -9 -11 -17 -9 -20 3 -2 10 5 17 15 14 24 10 26 -8 5z"/>
<path d="M3356 8995 c-9 -26 -7 -32 5 -12 6 10 9 21 6 23 -2 3 -7 -2 -11 -11z"/>
<path d="M6980 8970 c20 -13 33 -13 25 0 -3 6 -14 10 -23 10 -15 0 -15 -2 -2
-10z"/>
<path d="M3324 8962 c3 -5 0 -13 -6 -15 -9 -4 -10 -6 -1 -6 17 -1 25 16 12 25
-7 4 -9 3 -5 -4z"/>
<path d="M6960 8956 c0 -2 7 -7 16 -10 8 -3 12 -2 9 4 -6 10 -25 14 -25 6z"/>
<path d="M12285 8950 c6 -10 4 -12 -9 -7 -10 4 -15 3 -11 -3 3 -6 11 -10 17
-10 6 0 16 -7 23 -16 11 -15 12 -15 12 0 0 9 -4 16 -9 16 -4 0 -7 5 -5 11 1 6
-4 14 -12 17 -9 3 -11 0 -6 -8z"/>
<path d="M6891 8882 c0 -11 2 -12 6 -4 2 6 9 10 13 7 5 -3 11 -2 14 3 2 4 -4
9 -15 9 -12 1 -19 -4 -18 -15z"/>
<path d="M8739 8882 c14 -11 32 -17 40 -14 11 4 8 8 -11 13 -15 4 -32 10 -40
14 -7 4 -2 -2 11 -13z"/>
<path d="M8768 8893 c7 -3 16 -2 19 1 4 3 -2 6 -13 5 -11 0 -14 -3 -6 -6z"/>
<path d="M12340 8870 c0 -5 5 -10 11 -10 5 0 7 5 4 10 -3 6 -8 10 -11 10 -2 0
-4 -4 -4 -10z"/>
<path d="M12354 8838 c-11 -18 -12 -48 -2 -48 4 0 8 6 9 13 0 6 2 20 4 30 4
20 -1 22 -11 5z"/>
<path d="M3236 8814 c-18 -25 -18 -25 3 -12 12 7 21 18 21 25 0 18 -2 16 -24
-13z"/>
<path d="M8850 8810 c0 -5 5 -10 11 -10 5 0 7 5 4 10 -3 6 -8 10 -11 10 -2 0
-4 -4 -4 -10z"/>
<path d="M12390 8812 c0 -8 -5 -10 -12 -6 -7 5 -9 2 -5 -9 4 -11 -1 -18 -14
-22 -16 -5 -18 -10 -8 -21 6 -8 17 -14 23 -13 7 0 6 2 -1 6 -7 2 -13 9 -13 14
0 6 5 7 10 4 6 -3 10 -1 10 5 0 6 4 9 9 6 13 -8 21 18 10 35 -7 11 -9 11 -9 1z"/>
<path d="M3216 8765 c4 -8 8 -15 10 -15 2 0 4 7 4 15 0 8 -4 15 -10 15 -5 0
-7 -7 -4 -15z"/>
<path d="M12413 8756 c0 -9 5 -16 10 -16 5 0 7 -9 4 -20 -3 -11 -1 -18 4 -14
5 3 13 -6 19 -20 5 -14 15 -26 22 -25 10 0 10 2 1 6 -7 2 -13 13 -13 24 0 10
-4 19 -10 19 -5 0 -10 6 -10 13 0 7 -6 21 -13 31 -12 16 -14 16 -14 2z"/>
<path d="M3190 8750 c0 -5 5 -10 10 -10 6 0 10 5 10 10 0 6 -4 10 -10 10 -5 0
-10 -4 -10 -10z"/>
<path d="M6735 8731 c-6 -11 9 -23 19 -14 9 9 7 23 -3 23 -6 0 -12 -4 -16 -9z"/>
<path d="M3152 8648 c2 -6 10 -13 16 -14 7 -1 8 0 2 3 -5 2 -8 9 -4 14 3 5 0
9 -6 9 -7 0 -10 -5 -8 -12z"/>
<path d="M6655 8633 c0 -21 1 -22 13 -6 6 9 12 20 12 23 0 4 -6 7 -12 7 -7 0
-13 -11 -13 -24z"/>
<path d="M3130 8630 c0 -5 5 -10 11 -10 5 0 7 5 4 10 -3 6 -8 10 -11 10 -2 0
-4 -4 -4 -10z"/>
<path d="M3118 8603 c7 -3 16 -2 19 1 4 3 -2 6 -13 5 -11 0 -14 -3 -6 -6z"/>
<path d="M3108 8583 c7 -3 16 -2 19 1 4 3 -2 6 -13 5 -11 0 -14 -3 -6 -6z"/>
<path d="M9010 8574 c0 -8 5 -12 10 -9 6 3 10 10 10 16 0 5 -4 9 -10 9 -5 0
-10 -7 -10 -16z"/>
<path d="M12505 8571 c-10 -17 12 -21 25 -6 10 12 10 15 -3 15 -9 0 -18 -4
-22 -9z"/>
<path d="M12531 8542 c-12 -22 -2 -39 21 -39 14 0 15 4 5 21 -6 12 -10 24 -9
29 4 14 -7 7 -17 -11z m19 -22 c0 -5 -2 -10 -4 -10 -3 0 -8 5 -11 10 -3 6 -1
10 4 10 6 0 11 -4 11 -10z"/>
<path d="M6570 8503 c0 -4 5 -15 10 -23 8 -13 10 -13 10 2 0 9 -4 20 -10 23
-5 3 -10 3 -10 -2z"/>
<path d="M3047 8488 c-3 -8 5 -14 19 -14 20 -2 21 0 9 12 -17 17 -22 17 -28 2z"/>
<path d="M12586 8453 c-6 -14 -5 -15 5 -6 7 7 10 15 7 18 -3 3 -9 -2 -12 -12z"/>
<path d="M3040 8453 c0 -5 5 -15 10 -23 7 -12 9 -10 7 8 -1 19 -17 33 -17 15z"/>
<path d="M12585 8419 c-11 -16 -1 -19 13 -3 7 8 8 14 3 14 -5 0 -13 -5 -16
-11z"/>
<path d="M2997 8414 c-8 -8 3 -34 15 -34 7 0 6 5 -1 13 -6 8 -8 17 -4 20 3 4
4 7 1 7 -2 0 -7 -3 -11 -6z"/>
<path d="M12606 8401 c-4 -5 -2 -12 4 -16 5 -3 10 -3 11 2 1 4 5 -3 9 -17 7
-22 8 -23 9 -4 1 24 -24 51 -33 35z"/>
<path d="M12592 8361 c13 -22 28 -28 28 -11 0 5 -9 14 -20 20 -19 10 -20 10
-8 -9z"/>
<path d="M6493 8335 c-3 -9 -3 -19 1 -22 3 -4 6 1 6 10 0 8 6 18 13 20 9 4 9
6 -1 6 -7 1 -15 -6 -19 -14z"/>
<path d="M12655 8310 c3 -5 8 -10 11 -10 2 0 4 5 4 10 0 6 -5 10 -11 10 -5 0
-7 -4 -4 -10z"/>
<path d="M12683 8283 c-15 -5 -17 -23 -4 -23 5 0 11 7 15 15 3 8 4 15 3 14 -1
0 -8 -3 -14 -6z"/>
<path d="M9173 8235 c0 -22 2 -30 4 -17 2 12 2 30 0 40 -3 9 -5 -1 -4 -23z"/>
<path d="M2892 8238 c-17 -17 -15 -25 7 -31 15 -4 19 0 16 15 -6 27 -9 30 -23
16z"/>
<path d="M12750 8164 c0 -14 4 -23 9 -20 5 3 7 15 4 26 -7 28 -13 25 -13 -6z"/>
<path d="M12770 8124 c0 -8 5 -12 10 -9 6 4 8 11 5 16 -9 14 -15 11 -15 -7z"/>
<path d="M2819 8108 c-1 -7 -2 -21 -2 -31 0 -11 -5 -16 -13 -13 -7 3 -16 1
-19 -5 -4 -5 -1 -8 7 -7 7 2 12 -4 10 -12 -2 -12 1 -11 11 2 8 10 16 15 19 13
3 -3 11 1 18 10 11 13 10 14 -5 9 -13 -5 -16 -4 -11 4 4 7 3 12 -3 12 -6 0 -8
7 -5 15 4 8 3 15 0 15 -3 0 -7 -6 -7 -12z"/>
<path d="M6411 8064 c0 -11 3 -14 6 -6 3 7 2 16 -1 19 -3 4 -6 -2 -5 -13z"/>
<path d="M6414 8017 c-2 -7 -1 -24 5 -38 8 -21 9 -20 8 14 -1 39 -4 46 -13 24z"/>
<path d="M12820 8010 c-9 -6 -10 -10 -3 -10 6 0 15 5 18 10 8 12 4 12 -15 0z"/>
<path d="M12845 8000 c-3 -5 -1 -10 4 -10 6 0 11 5 11 10 0 6 -2 10 -4 10 -3
0 -8 -4 -11 -10z"/>
<path d="M2756 7990 c5 -8 9 -21 10 -28 2 -8 5 -17 8 -20 4 -3 5 4 3 16 -2 12
-9 28 -17 35 -10 10 -11 9 -4 -3z"/>
<path d="M12810 7959 c0 -5 5 -7 10 -4 6 3 10 8 10 11 0 2 -4 4 -10 4 -5 0
-10 -5 -10 -11z"/>
<path d="M2739 7943 c-1 -4 -1 -11 0 -15 0 -5 -3 -8 -7 -8 -4 0 -8 -11 -8 -25
0 -14 4 -25 8 -25 5 0 8 6 7 13 -3 24 1 37 12 37 5 0 7 -6 3 -12 -5 -10 -4
-10 6 -1 10 9 10 15 -4 28 -9 9 -17 13 -17 8z"/>
<path d="M6416 7935 c4 -8 8 -15 10 -15 2 0 4 7 4 15 0 8 -4 15 -10 15 -5 0
-7 -7 -4 -15z"/>
<path d="M6412 7850 c0 -14 2 -19 5 -12 2 6 2 18 0 25 -3 6 -5 1 -5 -13z"/>
<path d="M2731 7783 c-12 -13 -12 -15 0 -11 7 2 21 -5 31 -16 10 -12 17 -16
18 -8 0 6 -4 12 -9 12 -5 0 -7 10 -4 23 3 16 2 18 -5 8 -5 -7 -11 -9 -13 -3
-2 6 -10 3 -18 -5z"/>
<path d="M2741 7743 c7 -12 15 -20 18 -17 3 2 -3 12 -13 22 -17 16 -18 16 -5
-5z"/>
<path d="M6411 7724 c0 -11 3 -14 6 -6 3 7 2 16 -1 19 -3 4 -6 -2 -5 -13z"/>
<path d="M2730 7710 c6 -11 15 -20 20 -20 6 0 2 9 -7 20 -10 11 -19 20 -21 20
-1 0 2 -9 8 -20z"/>
<path d="M6412 7669 c-1 -22 4 -42 13 -49 10 -9 15 -9 15 -1 0 6 -4 11 -9 11
-6 0 -12 17 -14 38 l-4 37 -1 -36z"/>
<path d="M12815 7690 c-3 -5 0 -7 9 -4 10 4 17 -2 22 -20 6 -25 7 -25 19 -9
12 16 10 20 -8 30 -27 15 -34 16 -42 3z"/>
<path d="M2765 7650 c1 -17 4 -33 7 -36 3 -3 5 8 4 25 -1 16 -4 32 -7 35 -3 4
-5 -7 -4 -24z"/>
<path d="M12820 7655 c9 -10 9 -15 1 -15 -6 0 -11 -5 -11 -11 0 -8 4 -8 14 1
16 12 11 40 -6 40 -6 0 -5 -6 2 -15z"/>
<path d="M6410 7581 c0 -26 16 -35 24 -15 10 25 7 34 -9 34 -8 0 -15 -9 -15
-19z"/>
<path d="M2817 7553 c-4 -3 -7 -11 -7 -17 0 -6 5 -5 12 2 6 6 9 14 7 17 -3 3
-9 2 -12 -2z"/>
<path d="M12765 7546 c-6 -20 -2 -46 7 -46 5 0 6 12 2 28 -4 18 -3 23 4 14 8
-11 10 -11 15 0 3 9 -1 15 -10 15 -8 0 -16 -5 -18 -11z"/>
<path d="M6441 7534 c0 -11 3 -14 6 -6 3 7 2 16 -1 19 -3 4 -6 -2 -5 -13z"/>
<path d="M12735 7540 c3 -5 8 -10 11 -10 2 0 4 5 4 10 0 6 -5 10 -11 10 -5 0
-7 -4 -4 -10z"/>
<path d="M2838 7503 c6 -2 9 -10 6 -15 -4 -7 -2 -8 5 -4 13 9 5 26 -12 25 -9
0 -8 -2 1 -6z"/>
<path d="M6426 7495 c-9 -26 -7 -32 5 -12 6 10 9 21 6 23 -2 3 -7 -2 -11 -11z"/>
<path d="M12730 7490 c0 -5 5 -10 10 -10 6 0 10 -7 10 -17 0 -9 3 -14 6 -10 8
8 -5 47 -17 47 -5 0 -9 -4 -9 -10z"/>
<path d="M2860 7465 c0 -8 2 -15 4 -15 2 0 6 7 10 15 3 8 1 15 -4 15 -6 0 -10
-7 -10 -15z"/>
<path d="M2886 7459 c-11 -17 -12 -26 -3 -40 6 -10 15 -15 20 -12 4 3 0 11
-10 19 -13 10 -14 13 -4 14 8 0 11 3 8 7 -4 3 -2 12 4 20 6 7 9 13 6 13 -3 0
-13 -10 -21 -21z"/>
<path d="M2910 7456 c0 -2 7 -7 16 -10 8 -3 12 -2 9 4 -6 10 -25 14 -25 6z"/>
<path d="M9160 7410 c-9 -6 -10 -10 -3 -10 6 0 15 5 18 10 8 12 4 12 -15 0z"/>
<path d="M12685 7390 c-4 -6 -11 -7 -17 -4 -6 4 -6 -2 1 -15 7 -12 8 -21 2
-21 -5 0 -8 -8 -7 -17 4 -26 19 -22 21 5 1 13 8 28 16 33 12 7 12 9 -1 9 -13
0 -13 1 0 10 9 6 10 10 3 10 -6 0 -15 -5 -18 -10z"/>
<path d="M2915 7371 c-3 -5 0 -13 6 -17 7 -4 9 -3 5 4 -3 5 0 13 6 15 9 4 10
6 1 6 -6 1 -14 -3 -18 -8z"/>
<path d="M6494 7326 c1 -26 4 -32 13 -24 11 9 6 33 -12 55 -1 2 -1 -12 -1 -31z"/>
<path d="M2957 7308 c-9 -6 -7 -11 6 -19 9 -6 15 -14 12 -20 -4 -5 -4 -9 -1
-9 3 0 12 13 20 28 13 26 13 28 -5 28 -11 0 -25 -4 -32 -8z m28 -8 c3 -5 1
-10 -4 -10 -6 0 -11 5 -11 10 0 6 2 10 4 10 3 0 8 -4 11 -10z"/>
<path d="M6500 7275 c-11 -13 -11 -18 0 -28 10 -9 11 -9 5 2 -4 8 -2 17 6 22
7 4 11 11 8 14 -4 3 -12 -2 -19 -10z"/>
<path d="M2991 7251 c-7 -5 -9 -11 -5 -14 5 -3 15 1 22 9 14 16 5 18 -17 5z"/>
<path d="M12611 7226 c-9 -11 -9 -16 1 -22 7 -4 10 -4 6 1 -4 4 -3 14 3 22 6
7 9 13 6 13 -2 0 -10 -6 -16 -14z"/>
<path d="M9073 7203 c-7 -15 -11 -29 -8 -31 3 -3 5 0 5 6 0 7 5 12 11 12 6 0
8 -7 5 -16 -6 -14 -4 -15 9 -4 9 7 12 16 7 19 -5 3 -11 14 -13 23 -3 14 -7 12
-16 -9z"/>
<path d="M12580 7160 c-9 -6 -10 -10 -3 -10 6 0 15 5 18 10 8 12 4 12 -15 0z"/>
<path d="M3060 7156 c0 -2 7 -7 16 -10 8 -3 12 -2 9 4 -6 10 -25 14 -25 6z"/>
<path d="M12509 7143 c-13 -17 -13 -17 6 -3 11 8 22 16 24 17 2 2 0 3 -6 3 -6
0 -17 -8 -24 -17z"/>
<path d="M12554 7141 c3 -5 -1 -14 -9 -21 -19 -16 -19 -27 0 -27 8 0 12 4 9 8
-2 4 2 14 11 22 13 13 13 16 -1 21 -8 3 -13 2 -10 -3z"/>
<path d="M6573 7118 c1 -15 4 -24 6 -22 2 2 9 0 15 -6 8 -6 12 -3 12 10 0 10
-4 17 -8 14 -4 -2 -11 3 -16 13 -9 14 -10 13 -9 -9z"/>
<path d="M3085 7100 c-3 -5 -1 -10 4 -10 6 0 11 5 11 10 0 6 -2 10 -4 10 -3 0
-8 -4 -11 -10z"/>
<path d="M12505 7085 c0 -13 2 -26 5 -29 3 -3 6 5 5 19 0 13 -2 26 -5 29 -3 3
-6 -5 -5 -19z"/>
<path d="M3143 7057 c0 -12 1 -17 4 -10 2 7 11 9 19 6 20 -8 17 4 -4 16 -15 8
-18 5 -19 -12z"/>
<path d="M3115 7040 c21 -24 26 -25 19 -6 -3 8 -13 17 -22 21 -13 5 -13 2 3
-15z"/>
<path d="M6654 7021 c0 -9 8 -18 18 -18 10 -1 15 3 12 12 -8 21 -30 25 -30 6z"/>
<path d="M3157 7023 c-11 -10 -8 -35 3 -28 6 4 8 10 5 15 -3 4 1 11 7 13 7 3
8 6 2 6 -6 1 -14 -2 -17 -6z"/>
<path d="M12450 6951 c0 -7 -4 -9 -10 -6 -5 3 -10 -2 -10 -12 0 -16 1 -16 17
0 9 9 14 20 10 23 -4 4 -7 2 -7 -5z"/>
<path d="M8910 6939 c0 -5 9 -9 20 -9 11 0 20 2 20 4 0 2 -9 6 -20 9 -11 3
-20 1 -20 -4z"/>
<path d="M6732 6920 c0 -14 2 -19 5 -12 2 6 2 18 0 25 -3 6 -5 1 -5 -13z"/>
<path d="M6760 6901 c5 -11 15 -23 21 -27 6 -3 3 5 -6 20 -20 30 -30 35 -15 7z"/>
<path d="M8847 6870 c-11 -11 -14 -20 -8 -24 5 -4 15 3 21 15 15 27 10 31 -13
9z"/>
<path d="M6740 6871 c0 -5 7 -12 16 -15 14 -5 15 -4 4 9 -14 17 -20 19 -20 6z"/>
<path d="M12361 6834 c0 -11 3 -14 6 -6 3 7 2 16 -1 19 -3 4 -6 -2 -5 -13z"/>
<path d="M12380 6841 c0 -5 5 -13 10 -16 6 -3 10 -2 10 4 0 5 -4 13 -10 16 -5
3 -10 2 -10 -4z"/>
<path d="M6833 6819 c-8 -11 -7 -17 4 -28 13 -12 14 -11 8 8 -10 31 2 26 25
-11 11 -18 20 -28 20 -21 0 7 -10 24 -23 39 -19 21 -25 24 -34 13z"/>
<path d="M12366 6793 c-6 -14 -5 -15 5 -6 7 7 10 15 7 18 -3 3 -9 -2 -12 -12z"/>
<path d="M8760 6775 c-11 -13 -10 -14 4 -9 9 3 16 10 16 15 0 13 -6 11 -20 -6z"/>
<path d="M6820 6770 c8 -5 22 -9 30 -9 10 0 8 3 -5 9 -27 12 -43 12 -25 0z"/>
<path d="M3279 6755 c17 -34 31 -51 31 -39 0 7 -9 22 -21 35 -16 19 -18 20
-10 4z"/>
<path d="M12341 6754 c0 -11 3 -14 6 -6 3 7 2 16 -1 19 -3 4 -6 -2 -5 -13z"/>
<path d="M3316 6703 c-4 -9 -2 -21 4 -27 8 -8 9 -6 5 7 -4 10 -2 17 4 17 6 0
11 5 11 10 0 16 -17 11 -24 -7z"/>
<path d="M6971 6694 c0 -11 3 -14 6 -6 3 7 2 16 -1 19 -3 4 -6 -2 -5 -13z"/>
<path d="M8691 6701 c-8 -5 -9 -11 -3 -15 5 -3 12 1 16 9 6 17 6 18 -13 6z"/>
<path d="M7050 6636 c0 -2 11 -11 25 -20 14 -9 25 -13 25 -8 0 5 -11 14 -25
20 -14 6 -25 10 -25 8z"/>
<path d="M3373 6589 c1 -10 5 -15 11 -12 5 4 7 -1 3 -10 -3 -8 1 -21 9 -27 8
-7 14 -20 14 -29 0 -13 2 -14 9 -2 7 11 3 20 -11 33 -12 10 -17 18 -11 18 5 0
10 7 10 15 0 8 -5 11 -10 8 -6 -4 -8 0 -5 9 4 8 0 15 -7 15 -8 0 -13 -8 -12
-18z"/>
<path d="M12204 6595 c-4 -8 -10 -12 -15 -9 -16 10 -9 -9 9 -22 21 -16 32 -17
32 -4 0 6 -8 10 -17 10 -15 0 -16 2 -3 10 8 5 11 10 5 10 -5 0 -3 5 5 10 10 7
11 10 2 10 -7 0 -15 -7 -18 -15z"/>
<path d="M8450 6561 c0 -6 4 -13 10 -16 6 -3 7 1 4 9 -7 18 -14 21 -14 7z"/>
<path d="M7205 6540 c-3 -6 1 -7 9 -4 18 7 21 14 7 14 -6 0 -13 -4 -16 -10z"/>
<path d="M8370 6530 c-9 -6 -10 -10 -3 -10 6 0 15 5 18 10 8 12 4 12 -15 0z"/>
<path d="M12195 6531 c-3 -5 0 -13 6 -17 7 -4 9 -3 5 4 -3 5 0 13 6 15 9 4 10
6 1 6 -6 1 -14 -3 -18 -8z"/>
<path d="M3441 6516 c-9 -10 -6 -17 13 -30 14 -9 27 -16 30 -16 9 0 -1 28 -16
43 -13 14 -18 14 -27 3z m29 -16 c8 -5 11 -10 5 -10 -5 0 -17 5 -25 10 -8 5
-10 10 -5 10 6 0 17 -5 25 -10z"/>
<path d="M7378 6476 c-19 -14 -14 -26 11 -26 14 0 14 2 1 10 -13 8 -12 10 3
10 9 0 17 5 17 10 0 13 -11 12 -32 -4z"/>
<path d="M8190 6470 c-8 -5 -10 -10 -5 -10 6 0 17 5 25 10 8 5 11 10 5 10 -5
0 -17 -5 -25 -10z"/>
<path d="M3446 6461 c-3 -5 2 -15 12 -22 15 -12 16 -12 5 2 -7 9 -10 19 -6 22
3 4 4 7 0 7 -3 0 -8 -4 -11 -9z"/>
<path d="M7453 6453 c9 -2 25 -2 35 0 9 3 1 5 -18 5 -19 0 -27 -2 -17 -5z"/>
<path d="M12150 6440 c-8 -5 -11 -10 -6 -10 5 0 4 -6 -1 -12 -11 -15 -24 -48
-19 -48 2 0 13 18 25 40 11 22 20 40 18 40 -1 0 -9 -5 -17 -10z"/>
<path d="M3470 6401 c0 -6 4 -13 10 -16 6 -3 7 1 4 9 -7 18 -14 21 -14 7z"/>
<path d="M3493 6357 c-3 -6 -2 -8 3 -5 12 8 35 -17 26 -28 -4 -5 0 -3 8 4 24
21 33 13 16 -13 -16 -25 -16 -25 2 -14 24 15 22 44 -4 44 -10 1 -18 6 -17 11
2 14 -26 14 -34 1z"/>
<path d="M11956 6197 c-16 -17 -17 -19 -3 -14 9 3 17 2 17 -4 0 -6 5 -7 11 -3
8 4 9 -1 4 -17 -4 -13 -6 -22 -4 -19 2 3 12 15 22 27 14 16 15 23 6 29 -8 5
-10 3 -4 -6 6 -10 4 -12 -9 -7 -10 4 -19 7 -22 7 -2 0 -1 7 2 15 8 20 3 18
-20 -8z"/>
<path d="M3613 6186 c0 -15 5 -26 13 -26 8 0 11 -6 7 -15 -3 -10 0 -15 8 -13
8 2 13 -5 12 -16 -1 -12 2 -15 9 -8 11 11 -17 62 -34 62 -5 0 -7 4 -4 8 2 4 1
14 -3 21 -6 9 -8 4 -8 -13z"/>
<path d="M11946 6153 c6 -4 14 -15 17 -23 5 -11 6 -9 4 4 -1 11 -9 21 -17 23
-10 3 -11 2 -4 -4z"/>
<path d="M3700 6133 c0 -6 8 -17 18 -24 16 -13 16 -13 2 6 -8 11 -16 22 -17
24 -2 2 -3 0 -3 -6z"/>
<path d="M3675 6080 c1 -11 5 -23 10 -27 4 -5 5 -3 2 4 -4 6 -2 13 4 15 7 2 6
8 -3 16 -12 9 -14 8 -13 -8z"/>
<path d="M11865 6050 c-3 -5 -1 -10 4 -10 7 0 9 -15 6 -37 -3 -28 -2 -33 4
-18 5 11 10 17 10 13 1 -8 41 28 41 37 0 2 -6 2 -14 -1 -7 -3 -20 2 -29 11
-10 9 -18 11 -22 5z"/>
<path d="M3715 6009 c-4 -6 -5 -12 -2 -15 2 -3 7 2 10 11 7 17 1 20 -8 4z"/>
<path d="M3756 5953 c6 -4 14 -15 17 -23 5 -11 6 -9 4 4 -1 11 -9 21 -17 23
-10 3 -11 2 -4 -4z"/>
<path d="M11821 5883 c0 -12 -6 -23 -12 -25 -5 -2 -12 -16 -13 -30 -2 -15 1
-25 5 -22 5 3 9 13 9 23 0 9 5 22 11 28 6 6 9 19 6 29 -4 16 -5 16 -6 -3z"/>
<path d="M3830 5791 c0 -6 4 -13 10 -16 6 -3 7 1 4 9 -7 18 -14 21 -14 7z"/>
<path d="M3860 5760 c-8 -5 -10 -10 -5 -10 6 0 17 5 25 10 8 5 11 10 5 10 -5
0 -17 -5 -25 -10z"/>
<path d="M3877 5743 c-10 -9 -9 -23 1 -23 5 0 9 7 9 15 0 17 -1 18 -10 8z"/>
<path d="M11715 5689 c-4 -6 -2 -16 5 -22 10 -9 11 -9 6 0 -3 6 -1 13 6 15 9
3 9 6 1 11 -7 4 -15 2 -18 -4z"/>
<path d="M11669 5647 c6 -8 7 -18 3 -22 -4 -5 -1 -5 6 -1 10 6 10 11 1 22 -6
8 -14 14 -16 14 -3 0 0 -6 6 -13z"/>
<path d="M11697 5645 c3 -8 9 -12 14 -9 12 7 11 11 -5 17 -10 4 -13 1 -9 -8z"/>
<path d="M11639 5638 c-10 -33 1 -52 16 -28 3 6 0 10 -7 10 -9 0 -9 3 2 10 10
6 11 10 3 10 -7 0 -13 -1 -14 -2z"/>
<path d="M3940 5609 c0 -5 5 -7 10 -4 6 3 10 8 10 11 0 2 -4 4 -10 4 -5 0 -10
-5 -10 -11z"/>
<path d="M11663 5585 c0 -8 4 -12 9 -9 5 3 6 10 3 15 -9 13 -12 11 -12 -6z"/>
<path d="M4001 5573 c-1 -7 -9 -13 -18 -14 -11 0 -13 -3 -5 -6 6 -2 10 -8 7
-13 -8 -13 21 -31 39 -24 16 6 13 24 -5 24 -6 0 -7 -4 -4 -10 3 -5 2 -10 -4
-10 -5 0 -12 4 -16 9 -7 12 31 25 46 15 8 -4 9 -3 5 4 -4 7 -13 12 -21 12 -7
0 -16 6 -18 13 -4 10 -6 10 -6 0z"/>
<path d="M11638 5553 c7 -3 16 -2 19 1 4 3 -2 6 -13 5 -11 0 -14 -3 -6 -6z"/>
<path d="M11571 5478 c13 -29 23 -29 38 1 7 13 6 18 -4 18 -7 0 -11 -6 -8 -14
7 -19 -7 -16 -24 5 -12 15 -12 14 -2 -10z"/>
<path d="M11553 5425 c0 -10 5 -11 19 -4 10 5 18 11 18 12 0 2 -8 3 -18 4 -10
1 -19 -5 -19 -12z"/>
<path d="M4080 5370 c0 -11 39 -34 47 -27 2 3 -5 8 -16 12 -12 3 -19 11 -16
16 4 5 1 9 -4 9 -6 0 -11 -4 -11 -10z"/>
<path d="M11488 5303 c7 -3 16 -2 19 1 4 3 -2 6 -13 5 -11 0 -14 -3 -6 -6z"/>
<path d="M4166 5233 c-6 -14 -5 -15 5 -6 7 7 10 15 7 18 -3 3 -9 -2 -12 -12z"/>
<path d="M11407 5226 c-14 -11 -16 -19 -7 -40 12 -33 19 -34 12 -1 -2 14 1 32
8 40 15 18 11 19 -13 1z"/>
<path d="M11432 5218 c-16 -16 -15 -25 1 -25 7 0 13 9 13 19 0 21 1 21 -14 6z"/>
<path d="M11310 5089 c0 -5 5 -7 10 -4 6 3 10 8 10 11 0 2 -4 4 -10 4 -5 0
-10 -5 -10 -11z"/>
<path d="M11335 5079 c-34 -21 -29 -25 10 -7 14 6 25 15 25 20 0 10 1 10 -35
-13z"/>
<path d="M4266 5057 c3 -10 9 -15 12 -12 3 3 0 11 -7 18 -10 9 -11 8 -5 -6z"/>
<path d="M11310 5040 c0 -5 5 -10 11 -10 5 0 7 5 4 10 -3 6 -8 10 -11 10 -2 0
-4 -4 -4 -10z"/>
<path d="M4312 5003 c14 -38 23 -42 25 -12 1 12 -1 19 -4 15 -3 -3 -12 2 -19
12 -11 14 -11 12 -2 -15z"/>
<path d="M4346 4953 c-6 -15 -8 -15 -16 -3 -6 9 -10 10 -10 3 0 -19 17 -24 30
-8 7 9 11 18 8 21 -3 3 -9 -3 -12 -13z"/>
<path d="M11242 4901 c-11 -6 -9 -9 6 -13 15 -4 19 -2 15 8 -6 16 -4 16 -21 5z"/>
<path d="M4388 4848 c-4 -10 -3 -18 3 -18 6 0 8 -4 5 -8 -3 -5 1 -9 9 -9 8 0
15 4 15 9 0 4 -4 8 -9 8 -5 0 -11 8 -13 18 -3 16 -4 16 -10 0z"/>
<path d="M4400 4796 c0 -2 7 -9 15 -16 13 -11 14 -10 9 4 -5 14 -24 23 -24 12z"/>
<path d="M11159 4762 c11 -8 11 -10 0 -15 -10 -4 -8 -6 4 -6 21 -1 18 21 -4
27 -12 3 -12 2 0 -6z"/>
<path d="M11116 4696 c4 -11 -1 -13 -18 -10 -18 3 -17 2 5 -7 24 -9 26 -13 15
-27 -12 -15 -11 -16 4 -3 10 7 16 17 13 21 -3 5 -1 10 5 12 6 2 1 9 -10 15
-16 11 -18 10 -14 -1z"/>
<path d="M11085 4660 c-3 -5 -2 -10 4 -10 5 0 13 5 16 10 3 6 2 10 -4 10 -5 0
-13 -4 -16 -10z"/>
<path d="M4570 4626 c0 -2 8 -10 18 -17 15 -13 16 -12 3 4 -13 16 -21 21 -21
13z"/>
<path d="M4516 4608 c3 -5 10 -6 15 -3 13 9 11 12 -6 12 -8 0 -12 -4 -9 -9z"/>
<path d="M4543 4582 c0 -10 7 -19 14 -19 17 0 17 12 -1 27 -12 9 -15 8 -13 -8z"/>
<path d="M4580 4565 c0 -8 2 -15 4 -15 2 0 6 7 10 15 3 8 1 15 -4 15 -6 0 -10
-7 -10 -15z"/>
<path d="M11040 4533 c0 -6 -7 -10 -16 -9 -9 0 -18 -7 -19 -17 -2 -9 1 -15 5
-12 5 3 11 -2 13 -10 4 -11 4 -10 3 2 -1 10 5 23 14 30 8 6 12 15 7 19 -4 4
-7 3 -7 -3z"/>
<path d="M4630 4450 c-23 -7 -23 -8 -3 -9 12 -1 25 4 28 9 3 6 5 10 3 9 -2 -1
-14 -5 -28 -9z"/>
<path d="M4672 4400 c0 -14 2 -19 5 -12 2 6 2 18 0 25 -3 6 -5 1 -5 -13z"/>
<path d="M10941 4359 c-27 -37 -38 -77 -16 -59 8 7 12 17 9 22 -3 5 1 17 8 26
18 20 31 42 25 42 -2 0 -13 -14 -26 -31z"/>
<path d="M4710 4289 c0 -5 5 -7 10 -4 6 3 10 8 10 11 0 2 -4 4 -10 4 -5 0 -10
-5 -10 -11z"/>
<path d="M10840 4289 c0 -6 5 -7 10 -4 6 3 10 1 10 -5 0 -6 5 -8 10 -5 16 10
11 21 -10 22 -11 1 -20 -3 -20 -8z"/>
<path d="M10882 4278 c-7 -7 -12 -18 -12 -24 0 -18 17 -26 26 -13 5 8 3 9 -6
4 -8 -5 -11 -3 -8 6 3 8 10 13 16 12 6 -2 9 4 6 12 -7 18 -7 18 -22 3z"/>
<path d="M10843 4252 c1 -14 5 -18 11 -12 7 7 6 14 -1 21 -9 9 -12 7 -10 -9z"/>
<path d="M4745 4220 c3 -5 8 -10 11 -10 2 0 4 5 4 10 0 6 -5 10 -11 10 -5 0
-7 -4 -4 -10z"/>
<path d="M10783 4147 c-3 -6 -1 -7 5 -3 7 4 12 2 12 -3 0 -6 -4 -11 -8 -11 -5
0 -9 -7 -9 -15 0 -24 12 -17 23 13 9 23 8 29 -3 29 -8 0 -17 -5 -20 -10z"/>
<path d="M4871 4073 c-1 -7 -9 -13 -18 -14 -11 0 -13 -3 -5 -6 6 -2 10 -8 7
-13 -3 -4 3 -14 13 -21 15 -13 16 -12 4 3 -11 14 -9 17 15 26 16 6 21 11 11
11 -9 1 -19 7 -21 14 -4 10 -6 10 -6 0z"/>
<path d="M4885 4030 c3 -5 11 -10 16 -10 6 0 7 5 4 10 -3 6 -11 10 -16 10 -6
0 -7 -4 -4 -10z"/>
<path d="M10705 3990 c-4 -6 -12 -7 -18 -3 -7 4 -6 -1 2 -11 9 -11 11 -20 5
-24 -11 -8 -12 -27 -3 -36 3 -4 12 0 19 9 8 10 9 15 2 15 -17 0 -3 28 16 33
13 4 13 5 -3 6 -17 1 -18 3 -5 11 9 6 10 10 3 10 -6 0 -15 -5 -18 -10z"/>
<path d="M4898 3973 c7 -3 16 -2 19 1 4 3 -2 6 -13 5 -11 0 -14 -3 -6 -6z"/>
<path d="M4958 3901 c5 -14 3 -14 -11 -2 -9 7 -17 9 -17 5 0 -5 10 -15 23 -23
12 -7 19 -10 15 -6 -4 4 -3 15 2 25 6 12 5 17 -5 17 -8 0 -11 -7 -7 -16z"/>
<path d="M4965 3850 c-8 -13 5 -13 25 0 13 8 13 10 -2 10 -9 0 -20 -4 -23 -10z"/>
<path d="M10560 3751 c0 -6 -9 -11 -20 -11 -11 0 -20 -5 -20 -11 0 -5 5 -7 10
-4 6 3 20 3 32 -1 19 -6 19 -7 4 -16 -9 -5 -14 -14 -10 -19 9 -15 32 22 26 43
-5 21 -22 35 -22 19z"/>
<path d="M5034 3739 c-3 -6 -1 -16 5 -22 9 -9 11 -8 5 6 -5 13 -2 16 10 11 9
-3 16 -4 16 -1 0 11 -30 16 -36 6z"/>
<path d="M5123 3678 c7 -19 -23 -35 -33 -17 -6 8 -9 8 -14 0 -4 -6 -2 -11 4
-11 6 0 8 -5 4 -12 -5 -7 -3 -8 6 -3 9 6 12 4 8 -7 -4 -9 0 -15 8 -15 10 0 12
7 8 20 -4 13 -2 17 5 13 6 -4 11 -2 11 4 0 6 5 8 13 4 7 -5 7 -1 -3 12 -22 29
-24 30 -17 12z"/>
<path d="M10525 3681 c-3 -5 -2 -12 3 -15 5 -3 9 1 9 9 0 17 -3 19 -12 6z"/>
<path d="M5135 3619 c-4 -6 -5 -12 -2 -15 2 -3 7 2 10 11 7 17 1 20 -8 4z"/>
<path d="M10440 3540 c0 -6 7 -10 15 -10 8 0 15 2 15 4 0 2 -7 6 -15 10 -8 3
-15 1 -15 -4z"/>
<path d="M5170 3520 c0 -5 5 -10 10 -10 6 0 10 5 10 10 0 6 -4 10 -10 10 -5 0
-10 -4 -10 -10z"/>
<path d="M10412 3518 c2 -6 10 -14 16 -16 7 -2 10 2 6 12 -7 18 -28 22 -22 4z"/>
<path d="M10360 3470 c0 -5 5 -10 10 -10 6 0 10 5 10 10 0 6 -4 10 -10 10 -5
0 -10 -4 -10 -10z"/>
<path d="M5314 3435 c8 -8 18 -15 22 -15 3 0 1 7 -6 15 -7 8 -17 15 -22 15 -5
0 -3 -7 6 -15z"/>
<path d="M5442 3440 c3 -9 -4 -20 -15 -26 -13 -7 -16 -14 -8 -18 6 -4 11 -2
11 4 0 6 5 8 10 5 6 -3 10 -1 10 5 0 6 5 8 10 5 16 -10 12 5 -7 23 -13 13 -15
13 -11 2z"/>
<path d="M10234 3437 c-8 -9 -7 -16 2 -25 8 -7 15 -8 19 -2 3 6 2 10 -4 10 -6
0 -8 7 -5 15 7 18 3 19 -12 2z"/>
<path d="M10270 3435 c0 -8 2 -15 4 -15 2 0 6 7 10 15 3 8 1 15 -4 15 -6 0
-10 -7 -10 -15z"/>
</g>
</svg>
